<?xml version="1.0" encoding="UTF-8"?>
<!DOCTYPE svg PUBLIC "-//W3C//DTD SVG 1.1//EN" "http://www.w3.org/Graphics/SVG/1.1/DTD/svg11.dtd">
<!-- Creator: CorelDRAW X7 -->
<svg xmlns="http://www.w3.org/2000/svg" xml:space="preserve" width="320px" height="80px" version="1.1" shape-rendering="geometricPrecision" text-rendering="geometricPrecision" image-rendering="optimizeQuality" fill-rule="evenodd" clip-rule="evenodd"
viewBox="0 0 320 80"
 xmlns:xlink="http://www.w3.org/1999/xlink">
 <g id="Layer_x0020_1">
  <metadata id="CorelCorpID_0Corel-Layer"/>
  <g id="_2662508708544">
   <polygon fill="black" points="14,11 317,15 316,78 13,74 "/>
   <polygon fill="#EC1A3F" stroke="black" stroke-width="2.36222" points="4,2 307,6 306,69 3,65 "/>
   <path fill="black" fill-rule="nonzero" d="M84 49c0,0 0,0 0,-1 0,1 0,1 -1,1 0,0 0,0 0,0 0,0 0,0 0,0l0 -1 -1 0c0,0 -1,0 -1,0 0,0 0,0 -1,0l1 0 0 -1c0,0 0,0 0,0l0 -1c0,0 0,0 0,0 0,0 0,0 0,0 0,-1 0,-1 0,-1 0,0 0,-1 -1,-1 0,0 0,-1 0,-1l1 0c-1,0 -1,0 -1,-1 0,0 0,0 1,0 0,0 -1,0 -1,0 0,0 0,0 0,0 0,0 0,-1 0,-1l0 -1 1 0c0,0 0,0 -1,0l0 0c0,-1 0,-1 0,-1 0,0 0,0 0,0 0,0 0,0 0,0l0 -1c0,0 0,0 0,0l0 -1c0,0 0,0 0,0l0 0c0,0 0,0 0,0 0,-1 0,-1 0,-1 0,0 0,0 0,0 0,0 0,0 1,-1 0,0 -1,0 -1,0 0,0 0,0 0,0l0 0 0 0 0 0c0,0 0,0 0,0 0,0 0,0 0,0 0,0 0,0 0,0 0,0 -1,1 -1,1l0 0c0,0 0,0 0,0 0,0 0,0 0,1 0,0 0,0 0,0l0 0c0,0 0,0 0,0 0,0 -1,0 -1,1l0 1c0,0 1,0 1,0 0,0 0,0 0,0l0 1 -1 0c0,0 0,0 0,0l0 0 0 0c0,0 0,0 0,0 0,1 0,1 0,1 0,0 0,0 0,0 0,-1 0,-1 0,-1 0,0 -1,0 -1,0 0,0 1,1 1,1 0,0 0,0 0,0l0 1 0 0c0,0 0,0 0,0 0,1 0,1 0,1l0 0c0,0 0,0 -1,0 0,0 0,0 0,0l1 0c0,0 0,1 0,1 0,0 0,0 0,0 0,0 -1,0 -1,0 0,0 0,0 0,0l0 1c0,0 0,0 0,0 0,1 0,1 0,1 0,0 0,0 0,0 0,0 0,1 0,1 0,0 0,0 0,0 -1,0 -1,0 0,1 -1,0 -1,0 -1,0l0 0c0,0 0,0 -1,0l0 0 0 0c0,0 0,0 0,0 -1,0 -1,0 -1,0l0 0c0,0 0,0 0,0 0,0 -1,0 -1,0l0 -1c0,0 0,0 0,1 0,0 -1,0 -1,0 0,0 0,0 0,-1 0,0 0,0 0,0l0 0 0 -1c0,0 0,0 0,0l0 0 0 0 0 0c0,0 0,0 0,0l0 0c0,0 0,0 0,-1l0 0c0,-1 0,-1 0,-1 0,0 0,0 0,0 0,0 0,0 0,-1l0 0c0,0 0,0 0,0 0,0 0,0 0,0 0,-1 0,-1 0,-2 0,0 0,0 0,0l0 -1c0,0 0,0 0,0l0 -1c0,0 0,0 0,0 0,0 0,0 0,0 0,0 0,-1 0,-1 0,0 0,0 0,0 0,0 0,0 0,0l0 0c0,0 0,0 0,0 0,0 0,-1 0,-1l0 -1c0,0 0,0 0,0 0,0 0,0 0,0l0 0c0,0 0,-1 0,-1 0,0 0,0 -1,-1 0,0 0,0 0,0 0,0 0,-1 0,-1l0 0c0,0 0,-1 0,-1 0,0 0,0 0,0 0,0 0,0 0,-1 0,0 0,0 0,0 0,0 0,0 0,-1 0,0 0,0 0,0 0,0 0,0 0,0 0,0 0,0 0,-1 1,0 1,0 1,0l0 0c0,0 0,-1 0,-1 0,0 0,1 0,1l-1 0c0,0 0,0 0,0 0,0 0,0 0,0 0,0 0,0 0,0 0,0 0,-1 0,-1 0,0 0,0 0,0l0 -1c0,0 0,0 0,0l0 -2c0,0 0,0 0,0l0 0 0 -1c0,-1 0,-1 0,-1 0,0 0,0 0,0 0,0 0,0 0,0 0,0 0,0 0,0l0 -1c0,0 0,0 0,-1 0,0 0,0 0,0 0,0 0,0 0,0 0,0 0,-1 0,-1l0 -1c0,1 0,1 0,1 0,0 0,0 0,0 0,0 0,0 0,0 1,0 1,0 1,0l0 0c0,0 0,0 0,0 0,0 1,0 1,0l0 0 0 0c0,0 1,0 1,0 0,0 0,0 0,0 0,0 0,0 0,0 0,0 0,0 0,0l1 0c0,0 0,0 -1,0 0,0 1,0 1,0 0,0 0,0 0,0 0,0 0,0 0,0 0,0 0,0 0,0l0 0 0 0 1 0 0 0 0 2c-1,0 -1,0 -1,0 0,0 0,1 0,1 0,0 1,0 1,0 -1,0 -1,0 -1,0 0,0 0,0 0,0 0,0 0,0 0,0 0,0 0,1 0,1 0,0 0,0 0,0 0,0 0,0 0,0l1 0c0,0 0,0 0,0l0 1c0,0 0,0 0,0 0,0 0,0 0,0 -1,0 -1,0 -1,1 0,0 0,0 0,0 0,0 0,0 0,0 0,1 0,1 0,1l1 0 0 0c0,0 0,0 -1,0 0,1 0,1 0,1l0 1c0,0 1,0 1,0 0,0 0,0 -1,0 0,0 0,0 0,1l0 0c0,0 0,0 1,0 0,0 0,0 0,0l0 0c0,0 0,1 0,1 0,0 0,0 0,0l0 1 0 0c0,0 0,1 0,1l0 0c0,0 0,0 0,1l0 0c0,0 0,0 0,0 0,0 0,0 0,0 0,0 0,-1 0,-1 0,0 0,0 0,0 1,-1 1,-1 1,-1 0,0 0,0 0,0 0,0 0,0 0,0l0 -2c0,0 0,0 0,0l0 0 0 -1c0,0 0,0 0,0l0 0c0,0 0,-1 0,-1 0,0 0,0 1,0 0,-1 0,-1 0,-1 0,0 0,0 0,0l0 0c0,0 0,0 0,0 0,0 0,0 0,0 0,0 0,0 0,0 0,0 0,0 0,0l0 -1c0,0 0,0 0,0l0 0 0 -1c0,0 0,0 0,0 0,0 0,-1 0,-1l0 0c0,0 1,0 1,-1 0,0 0,0 0,0l0 -1c0,0 0,0 0,0l0 0c0,0 0,0 0,-1 0,0 0,0 0,0l0 0c0,-1 0,-1 1,-1 0,0 0,0 0,1 0,0 0,0 0,0 0,0 1,0 1,-1l0 0c0,0 0,1 0,1 0,0 0,0 0,0 0,0 0,0 0,0 0,0 1,0 1,0 0,0 0,0 0,0 0,0 0,0 0,0l0 0 0 0c0,0 0,0 0,0 0,0 1,0 1,0l0 1c0,0 0,-1 0,-1 0,0 0,0 0,0 0,0 0,0 1,0 0,0 0,0 0,0 0,0 0,0 0,1 0,0 0,0 0,0l-1 0c1,0 1,0 1,0l-1 0 0 1 1 0 0 1 0 0c0,0 0,0 0,0 0,0 0,0 0,0 0,1 -1,1 -1,1l1 0c0,0 0,0 0,0 0,0 0,0 0,1l0 0c0,0 0,0 0,0 0,0 0,0 0,0 0,0 0,0 -1,0l0 1c1,0 1,0 1,0l0 1 0 1c0,0 0,0 0,0 0,0 0,0 0,0l-1 1c0,0 1,0 1,0 0,0 0,0 0,0l0 1c0,-1 -1,-1 -1,-1 0,2 0,2 0,2 1,1 1,1 1,1l0 1c0,0 -1,0 -1,0l0 0c0,0 0,0 0,0 0,0 0,0 0,0l1 0c0,0 0,0 0,1 0,0 0,0 0,0 0,0 0,0 0,0l0 0c0,-1 0,-1 0,-1 1,0 1,0 1,0 0,0 0,0 0,0l-1 0 1 -1c0,0 0,0 0,0l0 -2c0,0 0,0 0,0 0,0 0,0 0,0l1 -1 0 -1 0 0c0,0 0,0 0,0 0,-1 0,-1 0,-1l0 0c0,0 0,0 0,0l0 -1c0,0 0,0 0,-1l1 0c-1,0 -1,0 -1,-1 0,0 0,0 1,0 0,0 0,-1 0,-1l0 0 0 -1c0,0 0,-1 0,-1l0 0c0,0 0,0 0,-1l0 0c0,0 1,0 1,0 0,0 0,0 0,0 0,0 0,0 0,0l0 0c0,0 1,0 1,0 0,0 0,0 0,0 0,0 0,0 0,0l0 0c0,0 1,0 1,0 0,0 0,0 0,0l0 0c0,0 0,1 1,1l0 0c0,0 0,0 0,0 0,0 1,0 1,0l0 0c0,0 0,0 0,0 0,0 0,0 0,0 0,0 0,0 0,0l0 0c0,0 0,0 0,0l0 1c0,0 0,0 0,0 0,0 0,0 0,1l0 0c0,0 0,0 0,0l-1 1c0,0 0,0 0,0 0,0 0,0 0,0 0,0 0,0 0,0l0 1c0,0 0,0 0,0 0,0 0,0 0,1l0 0c0,0 0,0 0,0l-1 1c0,0 0,0 0,0 0,0 0,0 0,0 0,0 0,0 0,0 0,0 0,0 0,1l0 0 0 0c0,0 0,0 0,0 0,0 0,0 0,0 -1,0 -1,0 -1,0 0,0 0,0 0,0 0,0 1,0 1,0 0,0 0,1 0,1 0,0 0,0 0,0 0,0 0,0 0,1l0 0c0,0 0,0 0,0 0,0 0,0 0,1 -1,0 -1,0 -1,0l0 0c0,0 0,0 0,0 0,0 0,0 0,0l0 1c0,-1 0,-1 0,-1 0,1 0,1 0,1l-1 2c0,0 0,0 0,0 0,0 0,0 0,0 0,0 0,0 0,0l0 0 0 0c0,0 0,1 0,1 0,0 0,0 0,0 0,0 0,0 0,0 0,0 0,1 0,1l0 0c0,0 0,0 0,0 0,0 0,0 0,1 0,0 0,0 0,0 0,0 0,0 0,0 0,0 0,1 0,1 0,0 -1,0 -1,1 0,0 0,0 0,0l0 0c0,0 0,0 0,0 0,0 0,0 0,1 0,0 0,0 0,0 0,0 0,0 0,0 0,0 0,0 0,0 0,0 0,0 0,1 0,0 0,0 0,0 0,0 0,0 0,1 -1,0 -1,0 -1,0l0 1c0,0 0,0 0,0 0,0 0,0 0,0 0,0 0,0 0,0l0 1c0,0 -1,0 -1,0 1,1 1,1 1,1l-1 1c0,0 0,0 0,1l0 0 0 0c0,0 0,0 0,1 0,0 -1,0 -1,0zm-9 -29l0 0c0,0 0,0 0,0zm9 1l0 0c0,0 0,0 0,0zm-12 0c0,0 0,0 0,0 0,0 0,0 0,0l0 0zm1 1c0,0 0,0 0,0 0,0 0,0 0,0 0,0 0,0 0,0zm17 1c0,0 0,0 0,-1l0 0c0,0 0,0 -1,0 0,0 0,0 0,0l0 0c0,0 0,0 0,0 0,1 1,1 1,1zm-10 0c0,0 1,0 1,0 0,0 0,0 -1,0l0 0zm1 1c0,0 0,0 0,-1 0,0 0,0 0,0 0,0 0,0 0,1zm8 0c0,0 0,0 0,0 0,0 0,0 -1,0 0,0 1,0 1,0zm-9 1c0,0 0,0 0,0 0,0 0,0 0,0l0 0c0,0 0,0 0,0 0,0 0,0 0,0zm0 1c0,0 0,0 0,0 0,0 0,0 0,0 0,0 0,0 0,0zm1 0l0 0c0,0 0,0 0,0l0 0zm-9 1c0,0 0,0 0,0 0,0 0,-1 0,-1l-1 1c1,0 1,0 1,0 0,0 0,0 0,0zm19 0c0,0 0,0 0,0 0,0 0,0 0,0zm-7 2c0,0 0,0 0,0 0,0 0,0 0,0zm-13 1c0,0 0,0 0,0l0 0zm8 3c0,0 0,0 1,0 0,0 -1,0 -1,0 0,0 0,0 0,0zm-1 1c0,0 0,0 0,0 0,0 0,0 0,0 0,0 0,0 0,0zm3 0c0,0 0,0 0,0 0,0 0,0 0,0 0,0 0,0 0,0zm-7 1c0,0 0,0 1,0 0,0 0,0 -1,0 0,0 0,0 0,0zm10 1c0,0 0,0 0,0 0,0 0,0 0,0l0 0zm-11 0c0,0 0,0 0,0 0,0 0,0 0,0 0,0 0,0 0,0zm3 0c0,0 0,0 0,0 0,0 0,0 0,0 0,0 0,0 0,0zm8 1c0,0 0,-1 0,-1 0,0 0,0 0,0 0,0 0,1 0,1zm1 0l0 -1c0,0 0,0 0,0l0 1zm-12 1c0,0 1,0 1,0 0,0 0,0 0,0l0 -1c0,0 0,0 0,0 0,0 0,0 0,-1l0 0 0 1 0 0c0,0 0,0 -1,0l0 1c1,0 1,0 1,0 0,0 -1,0 -1,0l0 0zm12 3c0,-1 0,-1 0,-1 0,0 0,0 0,0 0,0 0,1 0,1zm-2 0c0,0 0,0 0,0 0,0 0,0 0,0 0,0 0,0 0,0zm-8 1c0,0 0,0 0,0 0,0 0,0 0,0l0 0c0,0 0,0 0,0l0 0zm10 3c0,0 0,0 0,-1 0,0 0,0 0,0l0 0c0,-1 0,-1 0,-1l0 0 0 0 0 0 0 0c0,0 0,0 0,0l-1 0c0,0 0,0 0,0l0 0c0,0 0,0 0,0 0,0 0,0 0,0 0,0 0,1 0,1l0 0c0,0 0,0 0,0 0,0 0,0 0,0 0,0 0,0 0,0 0,1 1,1 1,1zm-12 -2c0,0 0,0 1,0 0,0 0,0 -1,0 0,0 0,0 0,0zm2 3c0,0 0,0 0,0 0,0 0,0 0,0 0,0 0,0 0,0zm9 0c0,0 0,0 0,0 0,0 0,0 -1,0 0,0 1,0 1,0zm-2 1c0,0 0,0 0,0 0,0 0,0 0,0 0,0 0,0 0,0z"/>
   <path id="1" fill="black" fill-rule="nonzero" d="M95 49c0,0 -1,0 -1,0l0 0c0,0 0,-1 0,-1 0,0 0,0 0,0 0,0 0,0 0,-1 0,0 0,0 0,0l0 0c0,-1 0,-1 0,-1 0,0 0,0 0,-1l0 0 0 0c0,0 0,-1 0,-1 0,0 0,0 0,0l0 0c0,0 0,0 0,-1l0 0c0,0 0,0 0,0l0 0 0 0c0,0 0,0 0,0 0,-1 0,-1 0,-1 0,0 0,0 0,0 0,0 0,0 0,-1 0,0 0,0 0,0 0,0 0,0 0,0 0,-1 0,-1 0,-1l0 0 0 0 0 0 0 -1 -1 0c0,0 0,0 0,0l1 -1 0 0c0,0 0,0 0,0l0 0c0,0 0,0 -1,0 0,0 0,-1 0,-1 0,0 0,0 0,-1 0,0 0,0 0,0 0,0 0,0 0,0l0 -1c0,0 0,0 0,0 0,0 0,-1 0,-1l0 0c0,0 0,0 0,0 0,-1 0,-1 0,-1 0,0 0,0 0,0l0 -1c0,0 0,-1 0,-1l0 0c0,0 0,0 0,0 0,0 0,0 0,0l0 0c0,0 0,0 0,0 0,-1 0,-1 0,-1l0 -1c0,0 0,0 0,0 0,0 0,0 0,0 0,0 0,0 0,0 0,0 0,0 0,-1 0,0 0,0 0,0l0 0c0,0 0,0 0,0l0 -2 0 0c0,0 0,0 0,0 0,-1 0,-1 0,-1l0 -1c0,0 0,0 0,0 0,0 0,0 0,0l0 -1c0,0 0,0 0,0l0 0c0,-1 0,-1 0,-1 0,0 0,0 0,0 -1,0 -1,0 -1,-1l0 0c1,0 1,0 1,0 0,0 0,0 0,0l0 0 1 0c0,0 0,0 0,0l0 0c0,0 0,0 1,1 0,-1 0,-1 0,-1 0,0 1,0 1,0l0 0c0,0 0,0 0,0l0 0c1,0 1,0 1,0 0,0 0,0 0,0 0,0 0,0 0,0l0 0c0,0 0,0 0,1 1,0 1,0 0,0l0 1c0,0 0,0 0,0 0,0 0,0 0,0l1 1c0,0 0,0 0,1l0 1c0,0 0,0 0,0 0,0 -1,0 -1,1l1 0c0,0 0,0 0,0 0,0 0,0 0,1 0,0 0,0 0,0l0 0c0,0 0,1 0,1 0,0 0,0 -1,0 0,0 0,0 1,0 0,0 0,0 0,0 0,0 0,0 0,0 0,0 0,1 0,1 0,0 0,0 0,0 0,0 0,0 0,0l0 0c0,0 0,0 0,0 0,0 0,0 0,0 0,0 0,1 0,1 0,0 0,0 0,0 0,0 0,1 0,1l0 0c0,0 0,0 0,0l2 0c0,0 0,0 0,0 0,0 0,0 0,0 0,0 1,0 1,0 0,0 0,0 1,0l0 -1c0,0 -1,0 -1,0 0,0 0,0 0,0 0,0 0,0 0,0l0 -1c0,0 0,0 0,0 0,0 0,0 0,0 0,0 0,-1 0,-1l0 0c0,0 0,0 0,0 0,0 0,0 0,0 1,0 1,0 1,0 0,0 0,0 -1,0l0 0 0 0 0 -1 0 0c0,0 1,0 1,0 0,0 0,0 -1,0 0,0 0,0 0,0l0 -1c0,0 0,0 0,0l0 -1c0,0 0,0 0,0 0,0 0,-1 0,-1 0,0 0,0 0,0 0,0 0,0 0,0 0,-1 0,-1 0,-1 0,0 0,0 0,-1 0,0 0,0 0,0 0,-1 0,-1 0,-1 0,0 0,0 0,0l0 0c0,-1 0,-1 -1,-1 1,0 1,0 1,0 0,0 0,0 0,0 0,0 0,0 1,0 0,0 0,0 0,0 0,0 0,0 0,0 1,0 1,0 1,0 0,0 0,0 0,0 0,0 0,0 1,0 0,0 0,0 0,0l0 0c0,0 0,0 0,0l0 0 0 0c0,0 0,0 0,0l0 0c0,0 0,0 1,0 0,0 0,0 0,0 0,0 0,0 1,0 0,0 0,0 0,0 0,0 0,0 0,0 0,0 0,1 0,1 0,0 0,0 0,1l-1 0c0,0 0,0 0,0 0,0 0,0 0,0 1,0 1,0 1,0 0,0 0,0 0,0 0,0 0,0 -1,1l1 0c0,0 0,0 0,0 0,0 0,0 0,0 0,0 0,1 0,1 0,0 0,0 -1,1 0,0 0,0 0,0l0 0c0,0 0,0 0,0 0,0 0,0 0,0 0,0 -1,0 -1,0 1,0 1,0 1,0l0 0c0,0 0,0 0,0l0 1 0 0 1 0c0,0 0,0 0,0 0,0 0,0 0,0 0,0 0,1 0,1 0,0 0,0 0,0 0,0 0,1 -1,1 1,0 1,0 1,0l0 1c0,0 0,0 0,0 0,0 0,0 0,0l0 1c0,0 0,0 0,0l0 0 0 1c0,0 0,0 0,0l0 0c0,0 0,1 0,1 0,0 0,0 0,1l0 0 0 -1 0 0c0,0 0,0 0,0 0,0 0,0 0,0 0,0 0,0 0,1 0,0 0,0 0,0 0,0 0,0 0,0l0 1c0,0 0,0 0,0 0,0 0,1 0,1 0,0 0,0 0,0l0 1c0,0 0,0 0,0 0,0 0,0 0,0l0 0c0,1 0,1 0,1 0,0 0,0 0,0 0,1 0,1 0,1l0 0c0,0 0,0 0,0 0,0 0,0 0,0 0,0 0,0 0,0 0,0 0,0 0,1 0,0 0,0 0,0l0 0c0,0 0,0 0,0 0,0 0,1 0,1 0,0 0,0 0,0l0 0c0,0 0,0 1,0l0 1c0,0 0,0 0,0 0,0 -1,0 -1,0l1 1c0,0 0,0 -1,0l0 0c1,0 1,0 1,1 0,0 0,0 0,0l0 0c0,0 0,1 -1,1 1,0 1,0 1,0 0,0 0,1 0,1l0 0c0,0 0,0 0,1l0 0 0 0c0,0 0,0 0,1 0,0 0,0 0,0 0,0 0,0 0,0 0,0 0,0 0,0 0,0 0,0 -1,0 0,0 0,0 0,0l0 0c0,0 0,0 0,-1 0,0 0,0 0,0l0 0 0 0c0,0 0,1 0,1l0 0c-1,0 -1,0 -1,0 0,0 0,0 0,0 0,0 0,0 0,0 -1,0 -1,0 -1,0 0,0 0,0 0,0 0,0 0,0 0,0l-1 0 -1 1c0,0 0,0 0,-1l0 0c0,0 0,0 0,0 0,0 0,0 0,0 0,0 0,-1 0,-1 0,0 0,0 0,0 0,0 0,0 0,0l0 -1c0,0 0,0 0,0l0 0c0,0 0,-1 0,-1l0 0c0,0 0,0 0,0 0,0 0,0 0,0l0 -1c0,0 0,0 0,0 0,0 0,0 0,0l0 -1c0,0 0,0 0,0l0 -2c0,0 0,0 0,0l0 0c0,0 0,-1 0,-1 0,0 0,0 0,0l0 0c0,0 0,0 0,0 0,-1 0,-1 0,-1l0 0 0 0c0,0 0,0 0,-1 0,0 0,0 0,0 0,0 -1,-1 -1,-1l0 0c0,0 1,0 1,0 -1,0 -1,0 -1,-1 0,0 0,1 -1,1 0,0 0,0 0,0 0,0 0,0 0,0l-1 -1c0,1 0,1 0,1l0 0 0 0c0,0 0,0 0,0 -1,0 -1,0 -1,0l0 0 0 0c0,0 0,0 0,0l0 0c0,0 0,1 0,1 0,0 0,0 0,0 0,0 0,0 0,0l0 0c0,0 0,0 0,1l0 0c0,0 0,0 0,0l0 1c0,0 0,0 0,0 0,0 0,0 0,0l0 1c0,0 0,0 0,0 0,0 0,1 0,1l0 0c0,0 0,0 0,0 0,0 0,0 0,0l0 1c0,0 0,1 0,1 0,0 0,0 0,0l1 0c0,0 0,0 0,1 0,0 0,0 0,0l-1 0c0,1 0,1 0,1l0 0c0,0 0,0 0,0 0,0 0,0 0,0l1 0c0,0 0,1 0,1l0 0c0,0 0,0 0,0 0,0 0,1 0,1 0,0 0,0 0,0 0,0 0,0 0,0 0,0 0,1 0,1 0,0 0,0 -1,0l0 0c0,0 0,0 -1,0l0 0 -1 0 0 0 -1 0c0,0 0,0 0,0 0,0 0,0 0,0zm-1 -26c0,0 0,0 0,0 0,0 0,0 0,0 0,0 0,0 0,0zm2 1c0,0 0,0 0,0 0,0 0,0 0,0 0,0 0,0 0,0zm6 2l0 -1c0,0 0,0 0,0 0,0 0,0 0,0l0 0 0 0c0,0 0,0 0,0 0,0 0,0 0,0 0,0 0,0 0,0l0 1zm-6 3c0,0 0,0 0,0 0,0 0,0 0,0l0 0zm1 2c0,0 0,0 0,0 0,0 0,0 0,0 0,0 0,0 0,0 0,0 0,0 0,0zm4 2c0,0 0,0 0,0l0 0 0 0c0,0 0,0 0,0zm1 2c0,0 0,0 0,0 0,0 0,0 0,0 0,0 0,0 0,0zm-7 2c0,0 0,0 0,0l0 0 -1 0 0 0c0,0 0,0 0,0l1 0zm7 6c1,0 1,0 1,0 0,0 0,0 0,0l-1 0zm0 0l0 0c0,0 0,0 0,0l0 0zm-6 3c0,0 0,0 0,0 0,0 0,-1 0,-1 0,1 0,1 0,1 0,0 0,0 0,0 0,0 0,0 0,0 0,0 0,0 0,0zm9 1c0,0 0,0 0,0 0,0 0,0 0,0 -1,0 -1,0 0,0z"/>
   <path id="2" fill="black" fill-rule="nonzero" d="M109 49c0,0 -1,0 -1,0 0,-1 0,-1 1,-2 0,0 0,0 0,0l0 -1c0,0 0,0 0,0 0,0 0,-1 0,-1 0,0 0,0 0,0l0 -1c0,0 0,0 0,0l0 -1c0,0 0,0 0,0l0 -1c0,0 0,0 0,0 0,0 0,0 0,0 0,0 0,0 0,0 0,0 0,0 0,0 0,0 0,-1 0,-1 0,0 0,0 0,0 0,0 0,0 0,0 0,0 0,0 0,0l0 0c0,0 0,0 0,0 0,-1 0,-1 0,-1l1 -1c0,0 0,0 0,0l0 0c0,0 0,0 0,-1 0,0 0,0 0,0l0 0c0,0 0,0 0,0 0,0 0,-1 0,-1 0,0 0,0 0,0 0,0 0,0 0,0l0 -1c0,0 0,0 0,0 0,0 0,0 0,0l0 0c0,0 0,-1 0,-1l0 0c0,0 0,0 0,0 0,0 0,0 0,0l0 -1c0,0 0,0 0,-1 0,0 0,0 0,0 0,0 0,0 0,0 0,0 0,0 0,0 0,-1 0,-1 0,-1l0 0c0,0 1,-1 1,-1 0,0 -1,0 -1,-1 0,0 0,0 1,0 0,0 0,0 0,0l-1 0 0 0c0,-1 0,-1 1,-1 0,0 0,0 0,0l0 0c0,-1 0,-1 0,-1 0,0 0,0 0,0l0 -1c0,0 0,0 0,0l0 0c0,0 0,0 0,0 0,-1 0,-1 0,-1 0,0 0,0 0,0 0,0 0,0 0,0l0 -1c0,0 0,0 0,0 0,0 0,0 0,0 0,0 0,0 0,-1 0,0 0,0 0,0l0 -1c0,0 0,0 0,0 0,0 0,0 0,0 0,0 0,0 0,0 0,0 0,0 0,0l0 -1c0,-1 0,-1 1,-1 0,0 0,0 0,0 0,0 0,0 0,0l1 0 1 0 0 0 0 0c0,0 1,0 1,0l0 0c0,0 0,0 0,0 0,0 1,0 1,0l0 0c0,0 0,0 0,0l1 0c0,0 0,0 0,0l0 0 0 1c0,0 0,0 0,0 0,0 0,0 0,1l0 0c0,0 0,0 0,0l0 0c0,0 -1,0 -1,0l0 0c0,0 0,0 0,0 1,0 1,0 1,1l0 0c-1,0 -1,0 -1,0l1 0c0,0 0,0 0,0 0,0 0,-1 0,-1l0 0c0,0 0,1 1,1l0 0c0,0 0,0 0,0 0,0 0,0 0,0 0,0 0,0 0,1 0,0 0,0 0,0 0,0 0,0 0,0 0,1 0,1 0,1 0,0 0,0 0,0l0 0 0 0 0 1c0,0 0,0 0,0 0,0 1,0 1,0l-1 1c0,0 0,0 0,0l1 1 0 0c0,0 0,0 0,0l0 1c0,0 0,0 0,0l0 0c0,1 0,1 0,1l0 0 1 1 -1 0c0,0 0,1 1,1l0 0c0,0 0,0 0,0l-1 1c0,0 0,0 0,0 0,1 0,1 1,1 0,0 0,0 0,0 0,0 0,0 0,1 0,0 0,0 0,0 0,0 0,0 0,0 0,0 0,1 0,1l1 0c0,0 0,1 -1,1l1 0c0,0 0,0 0,0 0,1 0,1 0,1 0,0 0,0 0,0 0,0 0,0 0,1 0,0 0,0 0,0 0,0 0,0 0,0 0,1 0,1 0,1 0,0 0,0 0,0 0,0 0,0 0,0 1,0 1,0 1,0 0,0 0,1 -1,1l0 0 0 0c0,0 0,0 0,0 0,0 1,0 1,0 0,0 0,1 0,1l0 0c0,0 0,0 0,1l0 0 0 0c0,0 0,0 0,0 0,0 0,0 0,0l0 1 0 0c0,0 0,0 0,0 0,0 0,0 0,0l0 0c0,0 0,0 0,0l1 1 0 1c0,0 0,0 0,1l0 0c0,0 -1,0 -1,0l0 0 -1 0c0,0 0,0 0,0 0,0 0,0 0,0l-1 0c0,0 0,0 0,0 0,0 0,0 0,0 0,0 0,0 0,0 0,0 0,0 -1,0l0 0c0,0 0,0 0,0 0,0 0,0 -1,0 0,0 0,0 0,0 0,0 0,0 0,-1 0,0 1,0 1,0 0,0 0,-1 0,-1l-1 1c0,0 0,0 0,0l0 0 0 -1 -1 -1c0,0 1,0 1,0 0,0 0,0 0,0 -1,-1 -1,-1 -1,-1 0,0 0,0 0,0l0 -1 0 0 0 0c0,0 0,-1 -1,-1 0,0 0,0 0,1l0 -1c0,0 0,0 0,0l-1 1c0,0 0,0 0,0 0,0 -1,0 -1,0 0,0 0,0 0,0 0,0 0,-1 0,-1l0 1c0,0 0,0 -1,0l0 0c0,0 0,0 1,0 0,0 0,0 0,0l0 0 -1 0c0,0 0,0 0,0 0,0 1,0 1,1l-1 0c0,0 0,0 0,0 0,0 0,1 0,1 0,0 0,0 0,0 0,1 0,1 0,1 0,0 0,0 0,0 0,1 0,1 0,1l0 0c0,0 0,0 0,0 0,1 0,1 0,1l0 0c0,0 0,0 0,0l0 0c0,1 0,1 0,1 0,0 -1,0 -1,0l0 0c0,0 0,0 0,0 0,0 -1,0 -1,0l0 0 -2 0c0,0 0,0 0,0 0,0 0,0 0,0zm6 -26c0,0 0,-1 0,-1 0,0 0,0 0,0 0,1 0,1 0,1zm3 4c0,0 0,0 0,0 0,0 0,0 0,0l0 0c-1,0 -1,0 -1,0 0,0 0,0 0,0 0,0 0,0 1,0zm-6 4c0,0 0,0 0,0l0 0c0,0 0,0 0,0 0,0 0,0 0,0zm3 7l1 0c0,0 0,0 0,0l0 -1c0,-1 0,-1 0,-2l0 0 0 -1c0,0 0,0 0,0l0 0c0,0 0,0 0,0l-1 0 1 -1 -1 0c0,0 0,0 0,0 0,0 0,-1 0,-1 0,0 0,0 0,0 0,0 0,-1 0,-1l0 0 0 0 0 0c0,0 -1,1 -1,1 0,0 0,0 0,0 0,0 0,0 0,0 0,1 0,1 0,1 0,0 0,0 0,0l0 1c0,0 0,0 0,0 0,0 0,0 0,0 0,0 0,0 0,0 0,0 0,0 0,0 0,1 0,1 0,1 0,0 0,0 0,0l0 1c0,0 0,0 0,0l-1 1c0,0 0,0 0,0 0,0 0,0 0,0l0 0c0,0 0,0 0,0 0,0 1,0 1,0l0 0c0,0 0,0 0,0 0,1 0,1 0,1 1,0 1,0 1,0zm-3 -6c0,-1 0,-1 0,-1 0,0 0,0 0,0 0,1 0,1 0,1zm0 4l0 0 0 0 0 0c0,0 0,0 0,0l-1 0c0,0 0,0 0,0 0,0 0,0 0,0l0 0c0,0 0,0 1,0zm7 4l0 0c0,0 0,0 0,0 0,0 0,0 0,0l0 0c0,0 0,0 0,0zm0 1c0,0 0,0 0,0 0,0 1,0 1,0 0,0 -1,0 -1,0 0,0 0,0 0,0 0,0 0,0 0,0 0,0 0,0 0,0l0 0 0 0 0 0 0 0 0 0zm-1 1c0,0 0,0 0,-1 0,0 0,0 0,0 0,0 0,0 0,1zm2 2c0,0 0,0 0,0 0,0 0,0 0,0 0,0 0,0 0,0zm-11 3l1 0c0,0 0,0 0,0l0 0c0,0 0,0 -1,0l0 0zm1 1c0,0 0,0 0,0 0,0 0,0 0,0 0,0 0,0 0,0z"/>
   <path id="3" fill="black" fill-rule="nonzero" d="M129 49l-1 0c0,0 0,0 0,0 0,0 0,0 -1,0l0 0 -1 0c0,0 0,0 0,0l0 0c0,0 0,0 0,0l-1 0c0,0 0,0 0,0 0,0 0,0 0,0 0,0 0,0 0,0 -1,0 -1,-1 -1,-1l0 -1c0,-1 0,-1 0,-1 0,0 0,0 0,0 0,0 0,0 1,0 -1,-1 -1,-1 -1,-1 0,0 0,0 0,0 0,0 1,0 1,0 0,-1 0,-1 0,-1 0,0 0,0 0,0l0 -1c0,0 0,0 0,0l0 0c0,0 0,0 0,-1 0,0 0,0 0,0l0 -1c0,0 0,0 0,0l0 0c0,0 0,0 0,0l0 0c0,0 0,0 1,0 0,0 0,0 0,0l0 0 0 0c0,0 0,0 0,-1 0,0 -1,0 -1,0 0,0 0,0 0,0 0,0 0,0 0,0l0 0c0,0 0,-1 0,-1 0,0 0,0 0,0l0 0c0,0 0,0 0,0l0 0 0 -1c0,0 0,0 0,0l0 -1c0,0 0,0 0,-1 0,0 0,0 0,0 0,0 0,0 0,0 0,-1 0,-1 0,-1l1 -1c0,0 0,-1 0,-1l0 0 0 -2c0,0 0,0 0,0 0,0 0,-1 0,-1 0,0 0,0 0,0 0,0 0,0 0,0 0,0 0,0 0,0l0 -1c0,0 0,0 0,0l0 0c0,0 0,0 0,0l1 0c0,-1 1,-1 1,-1 0,0 -1,0 -1,0l0 0c0,0 0,0 0,0 0,0 0,0 -1,0l1 -1c0,0 0,0 0,-1 0,0 0,0 -1,0 0,0 0,0 0,0l0 0 0 0c0,0 0,0 -1,0 0,0 0,0 0,0l-1 0c0,0 0,0 0,0 0,0 0,0 0,0 0,0 0,0 -1,0l0 0 -1 0c0,0 0,-1 0,-1 0,0 0,0 0,0 0,0 0,0 0,0l0 0 0 -1 0 0c0,0 0,0 0,0l0 -1 1 -1c0,0 0,0 -1,0 0,0 0,0 1,0 0,0 -1,0 -1,-1 0,0 1,0 1,0 0,0 0,0 0,0 0,0 0,0 0,0 0,0 1,0 1,0l0 0c0,0 0,0 0,0 0,0 0,1 0,1l1 0c0,0 0,0 0,0l0 0c0,0 0,0 0,-1 0,0 0,0 0,0 0,0 0,0 0,0l0 0c0,0 0,0 1,0 0,0 0,0 0,0l0 0c0,0 0,0 0,0 0,0 0,0 0,0 0,0 1,0 1,0 0,0 0,0 0,0l0 0c1,0 1,0 1,0 0,0 0,0 0,0 0,0 0,0 0,0 0,0 0,0 0,0 0,0 0,1 0,1l1 0c0,0 0,0 0,0 0,0 0,0 0,0 0,0 0,0 0,0l0 0 0 0c0,-1 1,-1 1,-1 0,0 0,0 0,0l0 1 0 0 0 -1 1 0c0,0 0,1 0,1l1 0 0 0c1,0 1,0 1,0 0,0 0,0 0,0 0,0 0,0 1,0l0 0 0 0c0,0 0,0 0,0l0 0c0,0 0,0 0,0 1,0 1,0 1,0l0 0c0,0 0,0 0,0 0,0 1,0 1,0 0,0 0,0 0,0l0 0c0,0 0,0 0,0 0,0 0,0 1,0 0,0 0,0 0,0 0,0 -1,1 -1,1 0,0 0,0 0,0 0,1 0,1 0,1l0 0c0,0 0,0 0,0 0,1 0,1 0,1l0 0c0,0 0,0 0,0 0,1 0,1 0,1 0,0 0,0 0,0 0,0 0,0 0,0l0 1c0,0 0,0 0,0l-1 0c0,0 0,0 0,0 0,0 0,0 0,0l0 0c0,0 0,0 0,0 0,0 0,0 -1,0 0,0 0,0 0,0 0,-1 0,0 0,0l-1 0c0,0 0,0 0,0 0,0 0,0 0,0 0,-1 0,-1 0,-1l-1 0 0 0 0 0c0,0 0,0 0,0 0,1 0,1 0,1l-1 1 0 0c0,0 0,0 0,0 0,0 0,0 0,0 0,0 0,0 0,1 1,0 1,0 0,0 0,0 0,0 0,0 0,0 0,0 0,0 0,0 0,1 0,1l0 0 0 1c0,0 0,0 0,0 0,0 0,0 0,0 -1,0 -1,0 -1,0 0,1 0,1 0,1l1 0c0,0 0,0 0,0 0,0 0,0 0,0l0 1c0,0 0,0 0,0l0 0c0,0 0,0 0,0 0,0 0,0 0,0 0,0 0,1 0,1l0 0c0,0 0,0 0,1l0 0c0,0 0,0 0,1 0,0 0,0 0,0l0 0c0,0 0,0 0,0 0,0 0,0 0,0l0 0 -1 1c0,0 0,0 0,0 0,0 0,0 0,0 0,0 0,0 0,0 0,1 0,1 0,1l1 0 0 0 -1 0c0,0 0,0 0,1 0,0 0,0 0,0 0,0 0,1 0,1l0 0c0,0 0,0 0,0 0,0 0,1 0,1 0,0 0,0 0,0l0 0c0,0 0,1 0,1 0,0 0,0 0,0 0,1 0,1 0,1 0,1 0,1 0,1l0 0c0,0 0,0 0,0 0,0 0,1 0,1 -1,0 -1,0 -1,0 0,0 0,0 0,0l0 0c0,0 0,0 0,0 0,1 0,1 0,1 1,0 0,0 0,0 0,0 0,0 0,0 0,0 -1,0 -1,0 0,0 0,0 0,0 0,0 0,0 0,0l0 0c0,1 0,1 1,1 0,0 0,0 0,0 0,0 0,0 0,0 0,0 0,0 0,0 0,0 0,0 0,0 0,0 0,0 0,0 0,1 0,1 0,1 0,0 0,1 0,1 0,0 0,0 0,0zm-5 -26c0,0 0,0 0,0 0,0 0,0 0,0 0,0 0,0 0,0zm10 1c0,0 0,-1 0,-1 0,0 1,0 1,0 0,0 0,0 -1,0 0,0 0,0 0,0l0 1zm-1 0c0,0 0,0 0,0 0,0 0,0 0,0l0 0zm-8 0l0 0c0,0 0,0 0,0l0 0c0,0 0,0 0,0 0,0 0,0 0,0l0 0zm9 0c0,0 0,0 0,0 0,0 0,0 0,0 0,0 0,0 0,0zm-7 1c0,0 0,-1 0,-1 0,0 0,0 0,0 0,0 0,0 0,1zm0 7l0 0c0,0 0,0 0,0l0 0zm0 3c0,0 0,0 0,0 0,-1 0,-1 0,-1 0,0 0,1 0,1zm1 3c0,0 0,0 0,-1 0,0 0,0 0,0 0,1 0,1 0,1zm-1 0c0,0 0,0 0,0 0,0 0,0 0,0 0,0 0,0 0,0zm2 3c0,0 0,0 0,0 0,0 0,0 0,0 0,0 0,0 0,0zm-1 4c0,0 0,0 0,0 0,0 0,0 0,0l0 0c0,0 0,0 0,-1l-1 0 0 1c0,0 1,0 1,0zm-3 3c0,0 0,0 0,-1 0,0 0,1 0,1l0 0z"/>
   <path id="4" fill="black" fill-rule="nonzero" d="M143 50c0,0 -1,0 -1,0 0,-1 0,-1 0,-1l0 0c0,0 0,0 0,0 0,0 0,0 -1,0l0 0 0 0c0,0 0,0 0,0 0,0 0,0 0,0 -1,0 -1,0 -1,0l-1 -1c0,0 0,0 0,0 0,0 0,0 0,0 0,0 -1,0 -1,0 0,-1 0,-1 -1,-1l0 0 0 -1 0 0c0,0 0,-1 0,-1 0,0 0,0 0,0 0,0 0,-1 -1,-1 0,0 0,0 0,-1 0,0 0,0 0,0 0,0 0,0 0,0 0,0 0,0 0,0l0 -1c0,0 0,0 0,0l1 0c0,0 0,0 0,0 0,0 0,0 0,0 1,0 1,0 1,0 0,0 0,0 0,0 0,0 0,0 0,0l1 -1c0,0 0,1 0,1l1 -1 1 0 0 1 0 0 0 0c0,0 0,1 0,1 0,0 0,0 0,0 0,0 0,0 0,0l0 0c0,1 0,1 0,1 1,0 1,0 1,0 0,0 0,0 0,0 0,0 0,0 0,0 0,0 0,1 0,1 0,0 1,0 1,0 0,0 0,0 0,0 0,0 0,0 0,0l0 0c0,0 0,0 0,0 0,0 0,0 0,0 0,0 1,0 1,0 0,0 0,0 0,0 0,0 0,0 0,0l0 0c0,0 0,0 1,0l0 0c0,0 0,0 0,0 0,0 0,0 0,0 0,-1 0,-1 0,-1l1 0c0,0 0,0 0,0 0,-1 0,-1 0,-1 0,0 0,0 0,0 0,0 0,0 0,0 0,0 0,0 -1,-1 0,0 1,0 1,0 0,0 0,0 0,0 0,0 0,0 0,0 0,0 -1,0 -1,0l0 -1c0,0 0,0 0,0 0,0 0,0 0,-1 0,0 0,0 0,0 0,0 0,0 -1,0l0 0c0,0 0,0 0,0 0,0 0,0 0,0 0,0 0,0 0,0l0 -1 -1 0 0 0c0,0 0,0 0,-1 0,0 0,0 0,0l-1 0c0,0 0,0 0,0 0,0 0,0 0,0l0 0c0,0 0,0 0,0 0,0 0,0 -1,-1 0,0 0,0 0,0 0,0 0,0 0,0l-1 0 0 -1 0 0 -1 0 0 -1c0,0 0,0 0,0l0 0c0,0 -1,0 -1,0 0,-1 0,-1 0,-1 0,0 0,0 0,0l-1 0c0,0 0,0 0,-1l0 0c0,0 0,0 0,-1l-1 0c0,-1 0,-1 0,-1 0,0 0,0 0,0 0,0 0,0 0,0 0,0 0,-1 0,-1 0,0 0,0 0,0 0,0 0,0 0,-1 0,0 0,0 0,-1 0,0 0,0 0,0l0 0 0 -1 0 0c0,0 0,0 0,-1 0,0 0,0 0,0 0,0 0,0 0,0l0 -1 1 -1c0,0 0,0 0,0l0 0c1,0 1,0 1,0 0,0 0,0 -1,-1l1 0c0,0 0,0 0,0l0 0c0,0 0,0 1,0l0 -1 0 0c0,0 0,0 0,0 0,0 0,0 0,0 0,0 0,0 1,0l0 0c0,0 0,0 0,0 0,0 0,0 0,0l1 0c0,0 0,0 0,0 0,0 0,-1 0,-1 1,0 1,0 1,0l0 0c0,0 0,0 0,0l1 0c0,0 0,0 1,1 0,0 0,0 0,0l0 0 0 0c0,0 0,0 0,0 0,0 0,0 0,0 0,0 0,-1 0,-1 0,0 0,0 0,0 0,0 0,1 1,1 0,0 0,0 0,0 0,0 0,0 0,0l0 0c0,0 1,0 1,0l1 0 0 1c0,0 0,0 0,0 0,0 0,0 0,0l0 0c0,0 0,0 0,0 0,0 0,0 1,0 0,0 0,1 0,1 0,0 0,0 0,0 0,1 0,1 0,1l0 0c0,0 0,0 0,0 0,1 0,1 0,1 0,0 0,0 1,0 0,0 0,0 0,0l0 1c0,0 0,0 0,0 0,0 0,0 0,0 0,1 0,1 0,1 0,0 0,0 0,0 0,0 0,0 0,0 0,0 0,1 0,1 -1,0 -1,0 -1,0l-1 0c0,0 0,0 0,0 0,0 0,0 -1,0l0 0c0,0 0,0 0,0 -1,1 -1,1 -1,1 0,0 0,0 0,-1 0,0 0,0 0,0 0,0 0,0 0,0l-1 0 0 0c0,0 0,0 0,0 0,0 1,0 1,0l-1 -1c0,0 1,0 1,0 -1,0 -1,0 -1,0 0,-1 0,-1 0,-1 0,0 0,0 0,0l0 -1c-1,0 -1,0 -1,0l-1 0c0,0 0,0 0,0 0,0 0,0 0,0 0,0 0,0 -1,0 0,0 0,0 0,0l1 0c-1,1 -1,1 -1,1l0 0c0,0 0,0 0,1 0,0 0,0 0,0 0,0 0,0 0,0 0,0 0,1 0,1 0,0 0,0 0,0 0,0 0,0 0,0 0,0 0,0 0,0 0,0 0,0 0,0 0,0 0,0 -1,1 0,0 0,0 0,0 0,1 0,1 1,1l0 0c0,0 0,0 0,0 0,0 0,0 0,0 1,0 1,0 1,0 0,0 0,0 0,0l0 0c0,1 0,1 1,1 0,0 0,0 0,0 0,0 0,0 0,0l0 1c1,0 1,0 1,0l0 0c0,0 0,0 0,0 0,0 1,0 1,0l0 0c0,0 0,0 0,0 0,1 0,2 0,2l0 -1 0 0 1 0c0,0 0,0 0,0 0,0 0,0 0,0l0 0c0,0 0,1 0,1l1 0c0,0 0,0 0,0 0,0 0,1 0,1 1,0 1,0 1,0 0,0 0,0 0,0l0 1c0,0 0,0 0,0 0,0 0,0 0,0 0,0 0,0 0,0 0,0 0,0 1,0 0,0 0,0 0,1 0,0 0,0 0,0 0,0 0,0 0,0 0,0 0,0 0,0 0,0 0,0 0,1 0,0 0,0 0,0 1,0 1,0 1,0l0 0c0,1 0,1 0,1 0,0 0,0 0,0l0 0 0 0 0 1c0,0 0,0 0,0 1,0 1,1 1,2 0,0 0,0 0,0l-1 0c0,0 0,1 0,1l0 0c0,0 0,1 0,2l0 0c0,0 -1,0 -1,0 0,0 0,0 0,1l0 0c0,0 0,0 0,0l-1 1 0 0c0,0 0,0 -1,1 0,0 0,0 0,0 0,0 0,0 0,0 0,0 -1,0 -1,0 0,0 0,0 0,0l-1 0 0 0c0,0 0,1 -1,1l0 -1c0,1 -1,1 -1,1 0,0 0,0 0,0zm-4 -24c0,0 0,0 0,0l0 0 1 0c0,0 0,0 0,0l0 0 -1 0c0,0 0,0 0,0 0,0 0,0 0,0 0,0 0,0 0,0 0,0 0,0 0,0zm-1 0c0,0 0,0 0,0 0,0 0,0 0,0 0,0 0,0 0,0zm9 1l0 -1c0,0 0,0 0,0l0 1zm1 0c0,0 0,0 0,0 0,0 0,0 0,0 0,0 0,0 0,0zm-8 0c0,0 0,0 0,0 0,0 0,0 0,0 0,0 0,0 0,0zm-3 2c0,0 0,0 0,0 0,0 0,0 0,0 0,0 0,0 0,0l0 0 0 0zm6 5c0,0 0,0 0,-1 0,0 0,0 0,0 0,0 0,0 0,1zm-4 -1c0,0 0,0 0,0 0,0 0,0 0,0 0,0 0,1 0,0zm7 6c0,0 0,0 0,0 0,0 0,0 0,0 0,0 0,0 0,0zm2 1c0,0 0,0 0,0 0,0 -1,0 -1,0 0,0 1,0 1,0zm0 2c0,0 0,0 0,0 0,0 0,0 0,0 0,0 0,0 0,0zm-2 0c0,0 0,0 0,0 0,0 0,0 0,0l0 0zm-7 1l0 0c0,0 0,0 0,0 0,0 0,0 0,0 0,0 0,0 0,0zm1 5l1 0c0,0 0,0 0,0l1 -1c-1,0 -1,0 -1,0 0,0 0,0 0,0l0 -1c0,0 0,0 0,0l0 0 0 1c0,0 0,0 0,0l0 0c0,0 0,0 0,0 0,0 0,0 -1,1 0,0 0,0 0,0zm3 -1c0,0 0,-1 0,-1 0,0 0,0 0,0 0,0 0,0 0,1 0,0 0,0 0,0zm-3 0c0,0 0,0 0,0 0,0 0,0 -1,0 0,0 1,0 1,0zm3 0c0,0 0,0 0,0 0,0 0,0 0,0 0,0 0,0 0,0z"/>
   <path id="5" fill="black" fill-rule="nonzero" d="M151 50c0,0 0,0 0,-1 0,0 0,0 0,-1 0,0 0,0 0,0l0 -1c0,0 0,0 0,-1 0,0 0,0 0,0 0,0 0,-1 0,-1l0 0c0,0 0,0 0,0l0 -1c0,0 0,-1 0,-1l0 0c0,0 0,0 0,0 0,0 0,0 0,0 0,0 0,0 0,0 0,-1 0,-1 1,-1 0,0 0,0 0,0 0,0 0,0 -1,0 0,0 0,0 0,-1 0,0 0,0 0,0l0 0c0,1 0,0 1,0 0,0 0,0 0,0l1 -1c-1,0 -1,0 -1,0l0 -1c0,0 0,0 0,0 0,0 0,0 0,0l0 0c0,0 0,-1 0,-1 0,0 0,0 0,0 0,0 0,0 0,0 0,0 0,0 0,0l0 -1c0,0 0,0 0,0 0,0 0,0 0,-1l0 0c0,0 0,0 0,0l0 0c0,0 0,0 0,0 0,-1 0,-1 0,-1l0 0c0,-1 0,-1 0,-1 0,0 0,0 0,0 0,-1 0,-1 0,-1 0,0 0,0 0,0 0,0 0,0 1,0l0 -1c0,0 0,0 0,0 0,0 0,-1 0,-1 0,0 0,0 0,0 0,0 0,0 0,0l0 -1 0 0c0,0 0,0 0,0 0,0 0,-1 0,-1l0 0c0,0 0,0 0,0 0,0 0,0 0,-1l0 0c0,0 0,0 0,0l0 -1c0,0 0,0 0,0 0,0 0,0 0,0 0,0 0,0 0,0 0,0 0,-1 0,-1l0 0c0,0 0,0 0,0 0,0 0,0 0,0 0,-1 0,-1 0,-1 1,0 1,0 1,0l-1 -1c0,0 0,0 0,0 0,0 0,0 0,0 1,0 1,0 1,0 0,-1 0,-1 0,-1l0 -1c0,0 0,0 0,0 0,0 0,0 0,0 0,0 0,0 1,0l1 0 0 0 0 0 1 0c0,0 0,0 0,0l0 0c0,0 1,0 1,0 0,0 0,0 0,0l0 0c1,0 1,0 1,0l0 0c0,0 0,0 0,0l1 0 0 0c0,1 0,1 -1,1 0,0 0,0 0,0l0 0c0,0 0,1 0,1l0 0c0,0 0,-1 -1,-1l0 0c0,1 1,1 1,1 0,0 0,0 0,0l0 0c0,0 0,0 0,0l0 0c0,0 0,0 0,0 0,0 0,0 0,0l0 0c1,0 1,0 1,0l0 1c0,0 0,0 0,0 0,0 0,0 0,0 0,0 0,0 0,0 0,0 0,0 0,0 0,0 0,1 0,1 0,0 1,0 1,0 0,1 -1,1 -1,1l0 0 0 0 0 0c1,0 1,0 1,1 0,0 0,0 0,0l0 0c0,1 0,1 0,1l0 0 0 1c0,0 0,0 0,0l0 1c0,0 0,0 0,0l0 0c0,0 0,0 0,1l1 0 0 1 0 0c0,0 0,0 0,0l0 1c0,0 0,0 0,0l0 1c-1,0 -1,0 -1,0 0,0 1,0 1,0 0,0 1,1 1,1 0,0 0,0 -1,0 1,0 1,1 1,1 0,0 0,0 0,0 -1,0 -1,0 -1,0l1 1c0,0 0,0 0,0l0 1c0,0 0,0 0,0 0,0 0,0 0,0 0,1 0,1 0,1 0,0 0,0 0,0 0,0 0,1 0,1 0,0 0,0 0,0 0,0 0,0 0,0 0,0 1,0 1,1 0,0 0,0 0,0 0,0 0,0 0,0 0,0 0,0 0,0l-1 0 0 1c0,0 1,0 1,0 0,0 0,0 0,0 0,0 0,0 0,1l0 0c0,0 0,0 0,0l1 0 -1 1c0,0 0,0 0,0 0,0 0,0 1,0l0 0 -1 0c0,0 0,0 0,0 0,0 0,0 0,0l0 0c0,1 0,1 1,1l0 1 0 1c0,0 0,0 0,0l0 0c0,1 0,1 -1,1l0 0 -1 0c0,0 0,0 0,0 0,0 0,0 0,0l0 0c-1,0 -1,0 -1,0 0,0 0,0 0,0 0,0 0,0 0,0 0,0 0,0 0,0l-1 0c0,0 0,0 0,0 0,0 0,0 0,0 -1,0 -1,0 -1,0 0,-1 0,-1 1,-1 0,0 0,-1 0,-1 0,0 0,0 0,0l0 0c-1,0 -1,0 -1,0l0 0 0 0 0 -1c0,0 0,0 0,-1 0,0 0,0 0,0 0,0 0,0 0,0 0,0 0,0 -1,-1l0 0 0 0 0 0c0,-1 0,-1 0,-1 0,0 0,0 -1,0l0 0c0,0 0,0 0,0l-1 0c0,0 0,0 0,0 0,0 0,0 0,0 0,0 0,0 -1,0 0,0 0,0 0,0l0 0c0,0 0,0 0,0l0 0c0,0 0,0 0,0 0,0 0,1 0,1l0 0 0 0c0,0 0,0 0,0 0,0 0,0 0,0l0 1c0,0 0,0 0,0 0,0 0,0 0,0 0,0 0,1 0,1 -1,1 -1,1 -1,1 0,0 0,0 0,0 0,0 0,0 0,0l0 1c0,0 0,0 0,0 0,0 0,0 0,0l0 1c0,0 0,0 0,0l0 0c0,0 0,0 0,0 0,0 0,0 0,0l-1 0c0,0 0,0 0,0 0,0 0,0 0,0l-1 0 -1 1c0,0 -1,0 -1,0 0,0 0,0 0,0zm7 -27c0,0 0,0 0,0 0,0 0,0 -1,0 0,0 1,0 1,0zm2 5c0,0 0,0 0,0 0,0 0,0 0,0l0 0c0,0 0,0 0,0 0,0 0,0 0,0 0,0 0,0 0,0zm-6 3c0,0 0,0 0,0l0 0c0,0 0,0 0,0 0,0 0,0 0,0zm3 8l1 0c0,0 0,0 0,-1l0 -1c0,0 0,0 0,-1l0 0 0 -1c0,0 0,0 0,0l0 0c0,0 0,0 0,0l0 -1 0 0 0 0c0,0 0,0 0,-1 0,0 0,0 -1,0 0,0 0,0 0,0 0,-1 0,-1 1,-1l-1 0 0 0 0 0c0,0 0,0 0,0 0,1 -1,1 -1,1 0,0 0,0 0,0 0,0 0,0 0,1 0,0 0,0 0,0l0 0c0,0 0,0 0,0 0,0 0,0 0,0 0,1 0,1 0,1 0,0 0,0 0,0 0,0 0,0 0,1 0,0 0,0 0,0l0 1c0,0 0,0 0,0l-1 0c0,1 0,1 0,1 0,0 0,0 0,0l0 0c0,0 0,0 1,0 0,0 0,0 0,0l0 0c0,0 0,0 0,0 0,0 0,1 0,1 1,0 1,0 1,0zm-3 -7c0,0 0,0 0,0 0,0 0,0 0,0 0,0 0,0 0,0zm0 5l0 0 0 0 0 0c0,0 0,0 0,0l-1 0c0,0 0,0 0,0 0,0 0,0 0,0l0 0c0,0 1,0 1,0zm7 4l1 0c0,0 0,0 0,0 0,0 0,0 0,0l0 -1c0,1 0,1 -1,1zm1 1c0,0 0,0 0,0 0,0 0,0 0,-1 0,0 0,0 0,0 -1,0 -1,0 -1,0 0,0 0,1 0,1 0,0 0,0 0,0l0 0 0 0 0 0 0 0 1 0zm-2 0c0,0 0,0 0,0 0,0 0,0 0,0 0,0 0,0 0,0zm2 3c0,0 0,0 0,0 0,0 0,0 0,0 0,0 0,0 0,0zm-10 3l0 0c0,-1 0,-1 0,-1l0 0c0,0 0,0 0,0l0 1zm1 1c0,0 0,0 0,-1 0,0 0,0 -1,0 0,1 1,1 1,1z"/>
   <path id="6" fill="black" fill-rule="nonzero" d="M171 49l0 0 -1 0c0,0 0,0 0,0 0,0 0,0 0,0 -1,0 -1,0 -1,0l-1 0c0,0 0,0 -1,0l-1 0c0,0 0,0 0,0l0 0 0 -6c1,-1 1,-1 1,-1 0,0 0,0 0,0 0,0 0,0 0,0 0,-1 0,-1 0,-1 0,0 0,0 0,0l0 -1 0 -1 0 0c0,0 0,0 0,0 0,-1 0,-1 0,-1l0 0 0 -1 0 0 0 0c0,0 0,0 0,-1l0 0c0,0 0,0 0,0 0,0 0,0 0,0l0 0c0,0 0,-1 0,-1l0 0c0,0 0,0 0,0l0 -1c0,0 0,0 0,0 0,0 0,0 0,0 0,0 0,0 0,0l0 0c0,-1 0,-2 0,-2l0 0 0 -1 0 0c0,0 0,0 0,0 0,-1 1,-1 1,-1l-1 0c0,0 0,0 0,0 0,-1 0,-1 0,-1 0,-1 0,-1 0,-1 0,0 0,0 0,0 0,0 0,0 0,0 0,0 0,0 0,0 0,0 0,0 0,0 0,0 0,0 0,0l1 -2c0,0 0,0 0,0 0,0 0,0 0,0l0 0c-1,-1 -1,-1 -1,-1 0,0 1,0 1,0l0 -1c0,0 0,0 0,0 0,0 0,0 0,0 0,0 0,0 0,0 0,-1 0,-1 0,-1 0,-1 0,-1 0,-1l0 0c0,0 0,0 0,0 0,0 0,0 0,0l1 0c0,0 0,0 0,0l0 0c0,0 0,0 0,0 1,0 1,0 1,0 0,0 0,0 0,0 1,0 1,0 1,0 0,0 0,0 0,0 0,0 0,0 0,0 0,0 0,0 1,0 0,1 0,1 0,1 0,0 0,0 1,-1 0,0 0,0 0,0l0 0c0,0 0,0 0,0 1,0 1,0 1,0 0,0 0,0 0,0 0,0 0,1 0,1l1 0c0,-1 0,-1 0,-1l0 0 1 1c0,0 0,0 0,0l1 0c0,0 0,0 0,0 0,0 0,0 1,0l0 0c0,0 0,1 0,1 0,0 0,0 0,0l0 0c0,0 0,0 1,0l0 0c0,0 0,0 0,1 0,0 1,0 1,0 0,0 0,0 0,0 0,0 0,0 0,0 0,0 0,1 0,1 0,0 0,0 0,0l0 0c0,0 0,0 0,0l0 1c0,0 0,0 1,0l0 0c0,1 0,1 0,1l0 0 0 1 0 0 0 1c0,0 0,0 0,0 0,0 0,1 0,1 0,0 0,0 0,0l-1 1c0,0 0,1 0,1 0,0 0,0 0,0 0,0 0,1 0,1l0 0c0,1 0,1 0,1 0,0 0,0 0,0 0,0 0,1 0,1l-1 0c0,0 0,0 0,0 0,0 0,0 0,1 0,0 0,0 -1,0 0,0 0,0 0,0 0,0 0,1 0,1 0,0 0,0 0,0 0,0 0,0 -1,0 0,0 0,0 -1,1l0 0 -1 0c0,0 0,0 -1,0l0 0c0,0 0,0 0,0l-1 0 0 0 -1 0c0,0 0,0 0,0l0 1c0,0 -1,0 -1,0 0,0 0,1 0,1 0,0 0,0 0,0 0,0 0,1 0,1l0 0c0,1 0,1 0,1l0 1c0,0 0,0 0,0 0,1 0,1 0,1l0 0c0,2 0,3 0,4 0,0 0,0 0,0l0 0zm-2 -26c0,0 0,0 0,0l0 0 0 0 0 0zm0 1l0 0c0,-1 0,-1 0,-1 0,0 -1,0 -1,0l1 1 0 0zm4 0c0,0 0,0 0,0 0,-1 0,-1 0,-1 0,0 0,1 0,1zm3 1c0,0 0,0 0,0 0,0 0,0 0,0 0,0 0,0 0,0zm-4 1l0 0c0,0 0,0 0,0 0,0 0,0 0,0l0 0zm0 8c0,0 0,0 0,0l0 0c0,0 0,0 0,0l1 0c0,0 0,0 0,0 0,0 1,0 1,0l0 0c0,0 0,0 0,0 0,0 0,0 0,0 0,0 1,0 1,0 0,0 0,0 0,0 0,0 0,0 0,0 1,-1 1,-1 1,-1l0 -1c0,0 0,-1 0,-1l0 0c0,-1 0,-1 0,-1 0,0 0,0 0,0 0,0 0,-1 0,-1 0,0 0,0 0,0l0 0c0,0 0,-1 0,-1 0,0 0,0 -1,0 0,0 0,0 0,0 0,0 0,-1 0,-1l0 0c-1,0 -1,0 -1,0 0,0 0,0 0,0l0 0c0,0 0,0 -1,0 0,0 -1,0 -1,0l1 1c0,0 -1,0 -1,0 0,0 0,1 0,1 0,0 0,0 0,0 0,0 0,0 0,1 0,0 0,0 0,0 0,0 0,0 0,1l0 0 0 0 0 1c0,0 0,0 0,0 0,0 0,0 0,0 0,0 0,0 0,0l0 1c0,0 0,0 0,0l0 0 0 1c0,0 0,0 0,0l-1 0 1 0zm-4 -6c0,0 0,-1 0,-1 0,0 0,0 0,0 0,0 0,0 0,1zm10 0c0,0 0,0 0,0 0,0 0,0 0,0 0,0 0,0 0,0zm-9 1c0,0 0,0 0,0 0,0 0,0 0,0 0,0 0,0 0,0zm10 0l0 0c1,0 1,0 1,0l-1 0c0,0 0,0 0,0 0,0 0,0 0,0zm0 1c0,0 0,0 0,0 0,0 0,0 0,0l0 0zm1 2l0 0c0,0 0,-1 0,-1 0,0 0,0 0,0l-1 0c0,0 0,0 0,0l0 0c0,0 1,0 1,1zm-12 3c0,0 0,0 0,0 0,0 0,0 0,0 0,0 0,0 0,0zm4 0c0,0 0,0 0,0 0,0 0,0 0,0 0,0 0,0 0,0zm6 0c0,0 0,0 0,0 0,0 0,0 0,0 0,0 0,0 0,0zm-4 1l-1 0 0 0 0 0 1 0zm0 1l0 -1 0 0 0 0 0 0c0,0 0,0 0,0l0 1zm-4 1c0,0 0,0 0,0l0 0 0 -1c0,0 0,0 0,0 0,0 0,0 0,0l-1 0 0 0c0,0 0,0 0,0 1,1 1,1 1,1zm5 0l0 0 -1 0 0 0c0,0 0,0 1,0zm0 0l0 0 0 0 0 0zm-2 0c0,0 0,0 0,0l0 0c0,0 0,0 0,0zm-3 4l-1 0c0,0 0,0 0,0l1 0zm-1 0c1,0 1,0 0,0 0,0 0,0 0,0 0,0 0,0 0,0zm2 1c0,0 0,-1 0,-1l-1 0c0,0 1,0 1,1zm-3 2c0,0 0,0 0,0 0,0 0,0 0,0l0 0 -1 0c1,0 1,0 1,0zm-1 0c0,0 0,0 0,0l0 0c0,0 0,0 0,0zm2 3c0,0 0,0 0,0 0,0 0,0 0,0 0,0 0,0 0,0z"/>
   <path id="7" fill="black" fill-rule="nonzero" d="M187 50l-1 0 0 0c0,0 -1,0 -1,0 0,0 0,0 0,-1 0,0 0,0 0,0l-1 1c-1,-1 -1,-1 -1,-1l-1 0c0,0 0,0 -1,0l0 0 1 -6c0,0 0,-1 0,-1 0,0 0,0 0,0 0,0 0,0 0,0 0,0 0,-1 0,-1 0,0 0,0 0,0l0 -1 0 -1 0 0c0,0 0,0 0,0 0,0 0,0 1,-1l0 0 -1 -1 1 0 0 0c0,0 -1,0 -1,0l0 -1c0,0 1,0 1,0 0,0 0,0 0,0l0 0c0,0 0,0 0,0l0 -1c0,0 0,0 -1,0l0 0c0,-1 0,-1 1,-1 0,0 0,0 0,0 0,0 0,0 0,0l0 0c0,-1 0,-2 0,-2l0 0 0 0 0 -1c0,0 0,0 0,0 0,0 0,0 0,0l0 -1c0,0 0,0 0,0 0,-1 0,-1 0,-1 0,0 0,0 0,0 0,0 0,0 0,0 0,-1 0,-1 0,-1 0,0 0,0 0,0 0,0 0,0 0,0 0,0 0,0 0,0l0 -1c0,0 0,-1 0,-1 0,0 0,0 0,0l0 0c0,0 0,0 0,0 0,-1 0,-1 0,-1l1 0c0,0 -1,0 -1,0 0,-1 0,-1 0,-1 0,0 0,0 0,0 0,-1 0,-1 0,-1 0,0 0,0 0,0l0 -1c0,0 0,0 0,0 0,0 1,0 1,0l0 0c0,0 1,0 1,0l0 0c0,0 0,0 0,0 0,0 0,0 0,0 1,0 1,0 1,0 0,0 0,0 0,0 0,0 0,0 1,0 0,0 0,0 0,0 0,0 0,0 0,1 0,0 1,0 1,0 0,0 0,0 0,0 0,-1 1,-1 1,-1l0 0c0,0 0,0 0,0 0,0 0,0 0,0 0,0 0,0 1,0 0,1 0,1 0,1l0 0c0,0 0,0 0,0l0 0 2 0c0,0 0,0 0,0l0 0c1,0 1,0 1,0 0,0 0,0 0,0l1 1c0,0 0,0 0,0 0,0 0,0 0,0l0 0c0,1 0,1 0,1l1 0c0,0 0,0 0,0 0,0 0,0 0,0 0,0 0,0 0,0 0,0 0,0 0,0 1,1 1,1 1,1 0,0 0,0 0,0l0 0c0,0 0,0 0,1l0 0c0,0 0,0 0,1l0 0c0,0 0,0 0,0l0 0 0 1 0 0 0 1c0,0 0,0 0,1 0,0 0,0 0,0 0,0 0,0 0,1l0 1c0,0 0,0 0,0 0,0 0,0 0,0 0,1 0,1 0,1l-1 1c0,0 0,0 0,0 0,0 0,0 0,0 0,1 0,1 0,1l0 1c0,0 0,0 0,0 0,0 -1,0 -1,0 0,0 0,0 0,0 0,0 0,1 0,1 0,0 0,0 -1,0 0,0 0,0 0,0 0,0 0,0 0,0 0,0 0,1 -1,1l-1 0 -1 0c0,0 0,0 0,0l0 0c0,0 -1,0 -1,0l0 0 -1 0 0 0c0,0 -1,0 -1,0l0 1c0,0 0,0 0,0 0,1 0,1 0,1 0,0 0,0 0,1 0,0 0,0 0,0l0 1c0,0 0,0 0,0l0 1c0,0 0,0 0,1 0,0 0,0 0,0l0 0c0,2 0,3 -1,4 0,0 0,0 1,0l0 1zm-2 -26c0,-1 0,-1 0,-1l0 0 -1 0 1 1zm-1 0l0 0c0,0 0,0 0,-1 0,0 0,1 0,1l0 0 0 0zm4 0c1,0 1,0 1,0 0,0 0,0 -1,0 0,0 0,0 0,0zm4 1c0,0 0,0 0,0 0,0 0,0 0,0 0,0 0,0 0,0zm-4 1l0 0c0,0 0,0 0,0 0,0 0,0 0,0l0 0zm-1 9c0,0 0,0 1,0l0 0c0,0 0,0 0,0l1 0c0,0 0,0 0,0 0,0 0,0 0,0l1 0c0,0 0,0 0,0 0,-1 0,-1 0,-1 0,0 0,0 0,1 0,0 0,-1 1,-1 0,0 0,0 0,0 0,-1 0,-1 0,-1l0 -1c0,0 0,0 1,-1l-1 0c0,0 0,-1 0,-1 0,0 0,0 0,0 1,0 1,0 1,0 0,-1 0,-1 0,-1l-1 0c0,0 0,0 0,0 0,-1 0,-1 0,-1 0,0 0,0 0,0 0,0 0,0 0,-1l-1 0c0,0 0,0 0,0 0,0 0,0 0,0l-1 0c0,0 0,0 0,0 -1,0 -1,0 -1,0l0 1c0,0 0,0 0,0 0,1 0,1 0,1 0,0 0,0 0,0 0,1 0,1 0,1 0,0 0,0 0,0 0,1 0,1 0,1l0 0 0 1 0 0c0,0 0,0 0,0 0,0 0,0 0,0 0,0 0,0 0,1l0 0c-1,0 -1,0 -1,0l0 0 1 1c-1,0 -1,0 -1,0l0 1 0 0zm-4 -7c1,0 1,0 1,-1 0,0 0,1 -1,1 0,0 0,0 0,0zm11 1c0,0 0,0 0,-1 0,0 0,0 0,0 0,0 0,0 0,1zm-9 0c0,0 0,0 0,0 0,0 0,0 0,0 0,0 0,0 0,0zm10 0l0 0c0,0 0,0 0,0l0 0c0,0 0,0 0,0 0,0 0,0 0,0zm-1 1c0,0 0,0 0,0 0,0 0,0 0,0l0 0zm1 2l1 0c0,0 0,0 0,0 -1,-1 -1,-1 -1,-1l0 0c0,0 0,0 0,0l0 1c0,0 0,0 0,0zm-11 3c0,0 0,0 0,0 0,0 0,0 0,0 0,0 0,0 0,0zm3 1c0,0 0,0 1,0 0,0 0,-1 -1,-1 0,0 0,0 0,1zm6 0c0,0 0,0 1,0 -1,0 -1,-1 -1,-1 0,0 0,1 0,1zm-4 0l0 0 0 0 0 0 0 0zm1 1l0 0 0 -1 0 0 -1 1c0,0 0,0 0,0l1 0zm-5 1c0,0 0,0 0,0l0 0 0 0c0,0 0,-1 0,-1 0,0 0,0 0,0l0 0 0 0c0,0 0,0 0,1 0,0 0,0 0,0zm5 0l0 0 0 0 0 0c0,0 0,0 0,0zm1 0l0 0 0 0 0 0zm-3 0c0,0 1,0 1,0l0 0c-1,0 -1,0 -1,0zm-3 4l0 0c0,0 0,0 0,0l0 0zm0 1c0,0 0,0 0,0 0,-1 0,0 0,0 0,0 0,0 0,0zm1 0c0,0 0,0 0,0l0 0c0,0 0,0 0,0zm-3 3c0,0 0,0 0,0 0,0 0,0 0,-1l0 0 0 0c0,1 0,1 0,1zm-1 0c0,0 0,0 0,0l0 -1c0,0 0,1 0,1zm3 2c0,0 0,0 0,0 0,0 0,0 -1,0 0,0 1,0 1,0z"/>
   <path id="8" fill="black" fill-rule="nonzero" d="M207 51c0,0 0,0 0,0l-1 -1c0,0 0,0 0,0 0,0 0,0 0,0 0,0 0,0 0,0 0,0 0,0 0,0 0,0 0,0 0,-1l0 0c0,0 0,0 0,0l0 -1c0,0 0,0 0,0l0 0c0,0 0,0 0,-1l0 0 0 0 0 -1 0 0 0 0 0 -1c0,0 0,0 0,0l0 0c0,0 0,0 0,-1l0 0c0,0 0,0 0,0 0,-1 0,-1 0,-1l0 0c0,0 0,0 0,0 0,-1 0,-1 0,-1l0 0c0,0 0,0 0,0l0 -1c0,0 0,0 0,0 0,0 0,-1 0,-1 0,0 0,0 0,0 0,0 0,0 0,0 0,0 -1,-1 -1,-1 1,0 1,0 1,0l0 0c0,0 0,0 0,0 0,0 0,0 0,0 0,0 0,0 0,0l0 0c0,0 0,0 0,0 0,-1 0,-1 0,-1 0,0 0,0 0,0l0 0c0,0 0,-1 0,-1 0,0 0,0 0,-1 0,0 0,0 0,0 0,0 0,0 0,0 0,0 0,0 0,-1l0 0c0,0 0,0 0,0l0 -1 0 0c0,0 0,0 0,0 0,0 0,0 0,0 0,0 0,0 -1,0 1,0 1,-1 1,-1l-1 0c0,0 0,0 1,0l0 -1 0 0 -1 -1c0,0 1,0 1,-1 0,0 0,0 0,0 0,0 0,0 0,0l0 0c0,0 0,0 0,0 0,0 -1,-1 -1,-1 0,0 1,0 1,0 0,0 0,0 0,0l0 -1c-1,0 -1,-1 -1,-1 0,0 0,0 1,0 0,-1 0,-2 -1,-2 0,-1 0,-1 0,-1 0,0 0,0 0,0 0,-1 0,-1 0,-1l0 0c0,0 0,0 1,0l0 0c0,0 0,0 0,0 0,0 0,0 0,0 0,0 0,0 0,0 1,0 1,0 1,0l0 0c0,0 1,0 1,0 0,0 0,0 0,0l0 0 0 0 1 0c0,0 0,0 0,0l0 0c0,0 0,0 0,0 0,0 0,0 0,0l0 0c0,0 0,0 1,0l0 0c0,0 0,0 0,0l0 0c0,0 0,0 0,0 0,0 0,0 0,0l0 0 0 0c0,0 0,0 0,0l1 0c0,0 0,0 0,0l1 0 0 0c0,0 0,0 0,1 0,0 0,0 0,0l0 0c0,0 0,0 0,0 0,0 0,0 0,0 0,0 0,0 0,1 0,0 0,0 0,0l0 1 0 0c0,0 1,1 1,1 -1,1 0,1 0,2 0,0 0,0 0,1l0 0c0,1 0,1 0,1 0,0 0,0 0,1 0,0 0,0 0,0 0,0 0,0 0,0 0,0 0,0 0,0 0,0 0,1 0,1 0,0 0,0 0,0 0,0 1,1 1,2 0,0 0,0 0,0 0,0 0,0 0,0 0,0 0,0 0,0l0 1c0,0 0,0 0,0 0,0 0,0 0,0 1,0 1,0 1,0 0,0 0,-1 0,-1 0,0 0,1 0,1 0,0 0,-1 0,-1 0,0 0,0 0,0 0,0 0,0 0,-1 0,0 0,0 0,0 0,0 0,0 0,0 0,0 0,0 0,-1 0,0 0,0 0,0l1 0c0,0 0,0 0,0 0,0 0,0 0,-1l0 0c0,0 0,0 0,0 0,0 0,0 0,0 0,0 0,0 0,0 0,-1 0,-1 0,-1 0,0 0,0 0,0l0 -1c0,0 0,0 0,0 0,0 0,0 0,0 0,0 0,0 0,-1 0,0 0,0 0,0 0,0 0,0 0,0 0,0 0,0 0,-1l0 0 0 0c1,-1 1,-1 1,-1 0,0 0,0 0,0 0,-1 0,-1 0,-1l0 0c0,-1 0,-1 0,-1 0,0 0,0 0,-1 0,0 0,0 0,0 0,0 0,0 0,0 0,0 0,0 0,0 0,0 0,0 0,0 0,0 0,0 0,0l0 -1c0,0 0,0 0,0 0,0 0,0 0,0l0 -1c1,0 1,1 1,1l0 0c0,0 0,0 1,0l0 -1 1 1 0 0c0,0 0,0 0,0 0,0 0,0 0,0l0 0c0,0 0,0 0,0 0,0 0,0 0,0l0 -1c1,0 1,0 1,0l1 0c0,0 0,0 0,0l0 1c0,0 0,-1 0,-1l1 0c0,0 0,1 0,1 0,0 0,0 0,0 0,0 0,0 0,0 0,0 0,0 0,0 0,1 0,1 0,1 0,0 0,0 0,0 0,0 0,0 0,0 0,0 0,0 0,0l0 1 0 0 0 0 0 0c0,0 0,1 0,1 0,0 0,0 0,0 0,0 0,0 0,0 0,0 0,1 0,1l0 0 0 1c0,0 0,0 0,0 0,0 0,0 0,0 0,1 0,1 0,1 0,0 0,0 0,-1 0,0 0,0 0,0 0,0 0,0 0,0 0,0 0,0 0,0 0,-1 -1,-1 -1,-2 -1,0 -1,-1 -1,-1l0 0c0,1 0,1 1,2 0,0 1,1 1,2 0,0 0,0 0,0 0,0 0,0 0,0l0 0c0,0 0,0 0,0 0,0 0,0 0,1 0,0 0,0 0,0l0 0c0,0 0,0 0,0 0,0 0,0 0,0 0,0 0,0 0,0 0,1 0,1 0,1 0,0 0,0 1,0 0,0 0,0 0,1 -1,0 -1,0 -1,0 0,0 0,0 0,0 0,0 0,0 0,0l0 1c0,0 0,0 0,0 0,0 0,0 0,0 0,0 0,0 0,0 0,0 0,0 1,1 0,0 -1,0 -1,0 0,0 0,0 1,1l-1 0c0,0 0,0 0,0l0 0 0 0c0,0 0,0 0,0l1 0 0 0c0,0 0,0 0,0 0,0 0,1 0,1 0,0 0,0 0,0 0,0 0,1 0,1 -1,0 -1,0 -1,0 0,0 0,0 0,0 0,0 0,0 0,0 0,0 0,1 0,1 0,1 0,1 0,1 0,0 0,0 0,0 1,1 1,1 1,1 -1,0 -1,0 -1,1l0 0c0,0 0,1 0,1 0,0 0,0 0,0l0 0c0,0 0,0 0,0l0 0c0,0 1,0 1,1l0 0 0 1 0 0c0,0 -1,0 -1,0 0,0 0,0 0,0l0 1 0 0c1,0 1,0 1,0 0,0 0,0 0,0l0 1c0,0 0,0 0,0 0,0 0,0 0,0l0 0c0,0 0,0 0,1l0 1c0,0 0,0 0,0l0 0c0,1 0,1 0,1 0,0 0,0 0,0 0,0 0,0 0,0l0 1c0,0 0,0 0,0 0,0 0,0 0,0 0,0 0,0 0,0 0,0 0,0 0,0 0,0 0,0 0,0l0 0c0,0 0,0 0,0l-1 0 0 0c0,0 0,0 0,0l-1 0 0 0c0,0 0,0 0,0l0 0 -1 0c0,0 0,0 0,0 0,0 0,0 -1,0 0,0 0,0 0,0 0,0 0,0 -1,0 0,0 0,0 0,0l0 -2 0 0c0,0 0,0 0,0 0,0 0,-1 0,-1l0 0 0 0c0,0 0,0 0,0 0,-1 0,-1 0,-1 0,0 0,0 0,0 0,0 0,0 0,0 0,0 0,0 0,-1l0 0c0,0 0,0 0,0 0,0 0,0 0,-1 0,0 0,0 0,0 0,0 0,0 0,0l0 -1 0 0 0 -1 0 0c0,-1 0,-1 0,-1 0,0 0,0 0,0 0,0 0,0 0,0 0,0 0,-1 0,-1 0,0 0,0 0,0l0 -1c0,0 0,0 0,0 0,0 0,0 0,-1 0,0 0,0 0,0 0,0 0,0 0,0 0,0 0,0 0,0l0 0c0,0 0,-1 0,-1 0,0 0,0 0,0 0,0 0,0 0,0 0,0 0,0 0,0 0,0 0,0 0,0 0,0 0,0 0,0 -1,0 -1,0 -1,0l0 1c0,0 0,0 0,0l0 0c0,0 0,0 0,0l0 1c0,0 0,0 0,0 0,0 0,0 0,0 0,1 0,1 0,1 0,0 0,0 0,0 0,1 0,1 -1,1 0,0 0,0 0,1 0,0 0,0 0,0l0 0 0 1 0 0c0,0 0,0 0,0 0,0 0,1 0,1 0,0 0,0 0,0l0 0 0 0 0 0c0,1 -1,1 -1,1l1 0c0,0 0,1 0,1l0 0c0,0 0,0 0,0 0,0 0,1 0,1 -1,0 -1,0 -1,0l0 0c1,0 1,0 1,0l-1 1c0,1 0,1 0,1l0 0c0,0 0,0 0,0 0,0 0,1 0,1 0,0 0,0 0,0 0,0 0,0 0,0 0,0 -1,0 -1,0l0 0 -1 0 0 0c-1,0 -1,0 -1,0 0,0 0,0 0,0 0,0 0,0 0,0l0 -1c0,0 0,0 0,0l0 -1c0,0 1,0 1,0 0,0 -1,0 -1,0 0,0 0,0 0,0l0 0 0 -1 0 0 0 0c0,-1 0,-1 0,-1l0 0c0,0 1,0 1,0 -1,0 -1,0 -1,0l0 0c0,0 0,0 0,0 0,0 0,0 0,0l-1 0c0,0 0,0 0,-1 0,0 0,0 0,0l1 0c0,0 -1,0 -1,0 0,0 0,-1 0,-1 0,0 0,0 0,0 0,0 0,0 0,0l0 -1c0,0 0,0 0,0 0,0 0,0 0,0l0 -1c0,0 0,0 0,0 0,0 0,0 0,0 0,0 0,0 0,0 0,0 0,0 0,0l0 -1 0 0c0,0 0,0 0,0 0,0 0,0 0,0 -1,0 -1,-1 -1,-1l1 0 0 0c-1,0 -1,0 -1,-1l0 0c0,0 0,0 0,0 0,0 0,0 0,0l0 0c0,0 0,0 0,0 0,-1 0,-1 0,-1 0,0 0,0 0,0l0 0c0,0 0,0 0,0 -1,0 -1,0 -1,0l0 0 0 0 0 0c0,0 0,0 0,1 0,0 0,0 0,0 0,0 0,0 0,0 0,0 0,0 0,0l0 1c0,0 0,0 0,0 0,0 0,0 1,0 0,0 0,0 0,0l0 0c-1,0 -1,0 -1,1 0,0 0,0 0,0l0 0c0,0 0,0 0,0l1 3 -1 0c0,0 0,0 0,1 0,0 0,0 0,0l0 0c0,0 0,0 0,0 0,0 0,0 0,0 0,1 0,1 0,1 0,0 0,0 0,1 0,0 0,0 0,0 0,1 0,1 0,1 0,0 1,0 1,0 0,0 0,0 0,0 0,1 0,1 -1,1 0,0 0,0 0,1l1 0 0 0c-1,0 -1,0 -1,0 0,0 0,0 0,1 0,0 0,-1 -1,-1l0 0c0,0 0,0 0,0 -1,0 -1,0 -1,0 0,0 0,0 0,0l-1 0c0,0 0,0 0,0l0 1zm12 -28c0,0 0,0 0,0l0 0 0 0zm-10 2l1 0 -1 0c0,0 0,0 0,0 0,0 0,0 0,0zm11 0l0 0c0,0 0,0 0,0 0,0 0,0 0,0zm0 1c0,0 0,0 1,0 0,0 -1,-1 -1,-1 0,0 0,1 0,1zm-12 0c0,0 0,0 0,0 0,0 0,0 0,0 0,0 0,0 0,0zm3 1c0,0 0,0 0,0 0,0 0,0 0,0 0,0 0,0 0,-1 0,0 0,0 0,0 0,0 0,0 0,0 0,0 0,0 0,0 -1,0 -1,0 -1,1 0,0 0,0 1,0zm-1 2c0,0 0,0 0,0 0,0 0,0 0,0 0,0 0,0 0,0zm-2 1c0,0 0,0 0,0 0,0 0,0 0,0 0,0 0,0 0,0zm13 1c0,0 0,0 0,0l-1 0c1,0 1,0 1,0 0,0 0,0 0,0zm-15 0c0,0 0,0 0,0 0,0 0,0 0,0 0,0 0,0 0,0zm16 1c0,0 0,0 0,0l0 0 0 0zm-1 0c0,0 0,0 0,0 0,0 0,0 0,0 0,0 0,0 0,0zm-10 2c0,0 0,0 0,0 0,0 0,0 0,0l0 0zm0 0l0 0 0 0 0 0zm2 1c0,0 0,0 0,0 0,0 0,0 0,0zm-4 3c0,0 0,0 0,0l0 0c0,0 0,0 0,0l0 0zm4 1l0 -1c0,0 0,0 0,0 0,0 0,0 0,0l0 1zm-4 0l1 0c0,-1 -1,-1 -1,-1l0 1zm12 1c0,0 0,0 0,0l0 0c0,0 0,-1 0,-1 0,0 0,0 0,0l-1 1c0,0 1,0 1,0zm-5 1c0,-1 0,-1 0,-1l0 0c0,0 0,0 0,0 0,0 0,0 0,1zm8 -1c0,0 0,0 0,0 0,0 0,0 0,0 0,0 0,0 0,0 0,0 0,0 0,0zm-9 2l0 0 0 0 0 0 0 0zm-6 1c0,0 0,0 0,0 0,0 0,0 0,0 0,0 0,0 0,0zm-1 1c0,0 0,0 0,0 0,-1 0,-1 -1,-1 0,1 0,1 1,1zm14 2c0,0 0,0 0,0 0,0 0,0 0,0 0,0 0,0 1,-1 0,0 0,0 0,0 0,0 -1,0 -1,0 0,0 0,0 0,0 0,0 0,0 0,0 0,0 0,0 0,1 0,0 0,0 0,0zm-13 0c0,0 0,0 0,0 0,0 0,0 0,0 0,0 0,0 0,0zm-1 3c0,0 0,0 0,0 1,0 1,0 1,0l0 0 -1 0 0 0c0,0 0,0 0,0l0 0c0,0 0,0 0,0 0,0 0,0 0,0z"/>
   <path id="9" fill="black" fill-rule="nonzero" d="M238 51l0 0c0,0 -1,0 -1,0 0,0 -1,0 -1,0l0 0 -1 -1 -1 1 -1 -1 -1 0c0,0 0,0 0,0l0 0 -2 0 0 0c0,0 -1,0 -1,0 0,0 0,0 0,0l0 0c0,0 0,0 -1,0l0 0 0 0c-1,0 -1,0 -1,-1l0 0c0,0 0,-1 0,-1 0,0 0,0 0,0 0,0 0,0 0,0 0,0 1,-1 1,-1l0 0 -1 0 0 0c0,0 0,0 0,-1 1,0 1,0 1,0 0,0 0,0 -1,-1l0 0c0,0 0,-1 0,-1l1 0c0,0 0,0 0,0l0 -1c0,0 0,0 0,0l0 0c0,0 0,0 0,-1 0,0 0,0 0,0 0,0 0,0 0,0 0,0 0,0 0,-1 0,0 0,0 0,0 0,0 0,0 0,0 0,0 0,0 0,0 0,0 0,-1 0,-1l0 0c0,0 0,0 0,0 0,0 0,-1 0,-1 0,0 0,0 0,0 0,0 0,0 0,0 0,0 0,0 0,0 0,0 0,-1 0,-1l0 0c0,0 0,-1 0,-1l0 0c0,-1 0,-1 0,-1 0,0 0,0 0,0l0 -1 0 0c0,0 0,0 0,0l0 -1c0,0 0,0 0,0l0 -1c0,0 0,0 0,0 0,0 0,0 0,0 0,0 0,-1 0,-1 0,0 0,0 0,0l0 -1c0,0 0,0 1,0l-1 -1c0,0 0,0 0,0 0,0 0,0 0,0 0,0 0,0 0,0 0,0 0,0 0,0l1 -2 0 -3c0,-1 0,-1 0,-1l0 0c0,0 0,0 0,0 0,0 0,0 0,0l0 -1c0,0 0,0 0,-1 0,1 0,1 0,1 1,0 1,0 1,0 0,0 0,0 0,0 0,0 0,0 0,0 1,0 1,0 1,0l0 0c0,0 0,0 1,0 0,0 0,0 0,0l0 0c0,0 1,0 1,0l0 0c0,0 0,0 0,0l1 0c0,0 0,0 0,0 0,0 0,0 0,0l1 0c0,0 0,0 0,0 0,0 0,0 0,0l1 0c0,0 0,0 0,0 0,0 0,0 0,0 0,0 0,0 0,0 0,0 1,0 1,0 0,0 0,0 0,0l0 0c0,0 0,0 0,0 1,0 1,0 1,0l0 0c0,0 0,0 0,1 0,-1 0,-1 0,-1l0 0c0,0 1,0 1,0 0,0 0,0 0,0 0,0 0,1 0,1l0 0 1 -1c0,0 0,0 0,0 0,0 0,0 0,0l1 0 -1 2c0,0 0,0 0,0l0 1 0 2c0,0 0,0 0,0 -1,0 -1,0 -1,0 0,0 0,0 0,0 0,0 -1,0 -1,0 0,0 0,0 0,0 0,0 0,0 -1,0l0 0 -1 0 0 0c-1,0 -1,0 -1,0l0 0c0,0 0,0 0,0 -1,0 -1,0 -1,0 0,0 0,0 0,0 0,0 0,0 0,0 0,0 -1,0 -1,0 0,0 0,0 0,0l0 0c0,0 0,1 0,1 0,0 0,0 0,0 0,0 0,0 0,1l0 0 0 0c0,0 0,0 0,1 0,0 0,0 0,0 0,0 0,0 0,0 0,0 0,1 0,1 0,0 0,0 0,0 0,1 0,1 0,1l0 0 0 0 0 0c0,0 0,0 0,0 0,0 0,0 0,0 0,0 0,0 0,1 0,0 0,0 1,0l0 0c0,0 0,0 0,0 0,0 0,0 0,0 0,0 0,0 1,0 0,0 0,0 0,0 0,0 1,0 1,0l0 0 0 0c0,0 0,0 0,0 0,0 0,0 0,0l1 0c0,0 0,0 0,0 0,0 0,0 0,0 0,0 1,0 1,0 0,0 0,0 0,0 0,0 0,0 0,0 0,0 0,1 0,1 0,0 0,0 0,1l0 0c0,0 0,0 0,1 0,0 0,0 0,0 0,0 -1,0 -1,0l0 0c0,0 1,0 1,1l0 0c0,0 0,0 -1,0 0,1 0,1 0,1l-1 0c0,0 0,0 0,0l0 0c0,0 0,0 0,0 0,0 0,0 -1,0 0,0 0,0 0,0 0,0 0,0 0,0l-1 0c0,-1 0,-1 0,-1l-1 0c0,0 0,0 0,0 0,0 0,0 0,0l0 0c0,0 1,0 1,0 0,0 0,0 0,0l0 0 0 0c0,0 0,0 0,-1 0,0 0,0 0,0 0,0 0,0 -1,0 0,0 0,0 0,1 0,0 0,0 0,0 0,0 0,0 0,0l0 0c0,0 0,1 0,1 -1,0 -1,0 -1,0 0,0 0,0 0,0 0,0 0,0 0,0l0 0c0,1 0,1 0,1 0,0 0,0 0,0l0 0c0,0 0,1 0,1l0 0c0,1 0,1 0,1 0,0 0,-1 0,-1 1,0 1,1 1,1 0,0 -1,0 -1,0l0 1 0 0c1,0 1,0 1,0 0,0 -1,0 -1,0 0,0 0,0 0,1l0 0c0,0 0,0 0,0l0 1c0,0 0,0 0,0 0,0 0,0 0,0l0 0c0,0 0,0 0,0 0,1 0,1 0,1 0,0 1,0 1,0 0,0 0,0 0,0 1,0 1,0 1,0 0,0 0,0 0,0 0,0 1,0 1,-1 0,0 0,1 0,1l0 0c0,0 0,0 0,0 1,0 1,0 1,0l1 0c0,0 0,0 0,0 0,0 0,0 0,0l1 0c0,0 0,0 0,0 0,0 0,0 1,0 0,0 0,0 0,0 0,0 0,1 0,1 0,0 0,0 0,0 0,0 0,0 0,1l0 1c0,0 0,0 -1,0 1,0 1,1 1,1 0,0 0,0 -1,0l1 1c-1,0 -1,0 -1,0zm1 -26l0 0c0,0 0,0 0,0 0,0 0,0 0,0l0 0c0,0 0,0 0,0zm-1 1c0,0 0,0 0,0 0,0 0,0 0,0l0 0zm-7 1l0 -1 0 0 0 0c0,0 0,0 0,1 0,0 0,0 0,0zm-1 3c0,0 0,0 0,0 0,0 0,0 0,0l-1 0 0 0 1 0 0 0zm-2 4c0,0 0,0 0,0l0 0zm3 1c0,-1 0,-1 -1,-1 0,0 0,0 0,0 0,1 0,1 1,1zm-2 0l0 -1 0 0 0 0 0 0c0,0 0,1 0,1 0,0 0,0 0,0 0,0 0,0 0,0zm1 1c0,0 0,0 0,0 0,0 0,0 0,0 0,0 0,0 0,0 0,0 0,0 0,0zm5 0l1 0c0,0 0,0 0,0l0 0c0,0 0,0 -1,0 0,0 0,0 0,0zm-4 5c0,0 0,0 0,0 0,0 0,0 0,0l0 0zm0 1c0,0 0,0 0,0l0 0c0,0 0,0 0,0l0 0zm-2 1c0,0 0,0 0,0 0,0 0,0 0,0 0,0 0,0 0,0l0 0zm0 1c0,0 0,0 0,0 0,0 0,0 0,0 0,0 0,0 0,0zm0 3c0,0 0,0 0,0l-1 0 0 0c0,0 0,0 1,0zm6 2c0,0 0,0 0,0 0,0 0,0 0,0 0,0 0,0 0,0zm0 1l1 0 0 0c0,-1 0,-1 0,-1l-1 0c0,1 0,1 0,1 0,0 0,0 0,0z"/>
  </g>
 </g>
</svg>
