<?xml version="1.0" encoding="UTF-8"?>
<!DOCTYPE svg PUBLIC "-//W3C//DTD SVG 1.1//EN" "http://www.w3.org/Graphics/SVG/1.1/DTD/svg11.dtd">
<!-- Creator: CorelDRAW X7 -->
<svg xmlns="http://www.w3.org/2000/svg" xml:space="preserve" width="300px" height="300px" version="1.1" shape-rendering="geometricPrecision" text-rendering="geometricPrecision" image-rendering="optimizeQuality" fill-rule="evenodd" clip-rule="evenodd"
viewBox="0 0 300 300"
 xmlns:xlink="http://www.w3.org/1999/xlink">
 <defs>
    <linearGradient id="id0" gradientUnits="userSpaceOnUse" x1="9.40637" y1="207.876" x2="87.0845" y2="132.703">
     <stop offset="0" stop-opacity="1" stop-color="#C641FE"/>
     <stop offset="0.560784" stop-opacity="1" stop-color="#E221FE"/>
     <stop offset="1" stop-opacity="1" stop-color="fuchsia"/>
    </linearGradient>
    <linearGradient id="id1" gradientUnits="userSpaceOnUse" x1="62.1808" y1="174.906" x2="186.116" y2="54.9678">
     <stop offset="0" stop-opacity="1" stop-color="#C641FE"/>
     <stop offset="0.560784" stop-opacity="1" stop-color="#E221FE"/>
     <stop offset="1" stop-opacity="1" stop-color="fuchsia"/>
    </linearGradient>
    <linearGradient id="id2" gradientUnits="userSpaceOnUse" x1="172.682" y1="184.655" x2="214.651" y2="152.013">
     <stop offset="0" stop-opacity="1" stop-color="#9BFE94"/>
     <stop offset="1" stop-opacity="1" stop-color="#99FF99"/>
    </linearGradient>
    <linearGradient id="id3" gradientUnits="userSpaceOnUse" x1="116.544" y1="260.97" x2="255.985" y2="126.029">
     <stop offset="0" stop-opacity="1" stop-color="#A920E3"/>
     <stop offset="0.701961" stop-opacity="1" stop-color="#D410F1"/>
     <stop offset="1" stop-opacity="1" stop-color="fuchsia"/>
    </linearGradient>
 </defs>
 <g id="Layer_x0020_1">
  <metadata id="CorelCorpID_0Corel-Layer"/>
  <rect fill="black" width="300" height="300"/>
  <g id="_2901231806400">
   <path fill="#9BFE94" fill-rule="nonzero" d="M74 97c1,-1 2,-1 4,-1 5,-2 11,-1 16,1 5,3 9,7 12,12 0,1 1,2 1,4 0,2 -1,4 -3,4 -1,1 -3,1 -5,2 -6,1 -11,1 -16,-1 -4,-2 -8,-6 -10,-13 -1,-1 -1,-2 -1,-4 -1,-2 0,-3 2,-4zm97 -1c1,0 2,0 3,1 2,1 3,2 3,4 -1,2 -1,3 -1,4 -3,7 -6,11 -11,13 -5,2 -10,2 -16,1 -2,-1 -3,-1 -5,-2 -2,0 -3,-2 -3,-4 1,-2 1,-3 2,-4 2,-5 6,-9 11,-12 5,-2 11,-3 17,-1z"/>
   <path fill="url(#id0)" fill-rule="nonzero" d="M82 242c-19,-2 -36,-10 -49,-23 -14,-14 -23,-34 -23,-55 0,-22 9,-41 23,-56 4,-3 7,-6 12,-9 0,3 0,5 1,8 -3,2 -6,4 -8,7 -13,12 -21,30 -21,50 0,19 8,37 21,50 13,12 30,20 48,21l-4 7z"/>
   <path fill="#C641FE" fill-rule="nonzero" d="M111 193c-2,0 -3,-2 -3,-4 1,-2 3,-3 5,-3 2,1 3,1 5,1l-4 7c-1,0 -2,0 -3,-1z"/>
   <path fill="#C641FE" fill-rule="nonzero" d="M105 181c-2,0 -4,-1 -4,-3 -1,-2 0,-4 2,-5 9,-2 18,-3 26,-3l-4 8c-7,0 -13,1 -20,3z"/>
   <path fill="#C641FE" fill-rule="nonzero" d="M147 136c-2,-1 -2,-3 -2,-5 1,-2 4,-2 5,-1 2,1 3,1 5,2l-4 6c-2,0 -3,-1 -4,-2z"/>
   <path fill="url(#id1)" fill-rule="nonzero" d="M177 129c6,-4 7,-6 8,-9 1,-8 2,-16 2,-23 2,-11 3,-23 4,-34l-27 -33 -36 45c-1,1 -1,1 -1,1 -2,1 -4,1 -5,-1l-38 -46 -27 34c2,20 4,40 7,59l0 0c6,5 12,9 18,10 5,2 11,1 17,-3 2,-1 4,0 5,2 1,2 0,4 -2,5 -7,4 -15,5 -22,3 -5,-1 -10,-3 -14,-7 2,13 4,26 7,37 2,-3 4,-6 6,-8 4,-6 10,-11 16,-15 2,-1 4,0 5,1 1,2 1,4 -1,5 -6,4 -10,8 -14,13 -3,4 -6,9 -8,14 3,4 6,9 10,13 4,6 11,12 17,17l-4 6c-6,-5 -14,-12 -19,-18 -4,-6 -9,-12 -12,-18l0 0c-1,0 -1,0 -1,-1 -5,-17 -9,-36 -12,-55 -2,-20 -5,-40 -6,-61l0 0c0,-1 0,-2 1,-3l30 -37c0,-1 1,-2 2,-2 13,-3 27,-5 40,-6 14,0 28,2 42,6 0,0 1,1 1,1l31 38c1,1 1,2 1,3 -1,12 -2,24 -3,35 -2,12 -3,29 -5,40l-13 -8zm-19 -103c-12,-3 -23,-4 -35,-4 -10,0 -21,1 -32,4l34 41 33 -41zm-44 97c1,-2 2,-4 4,-3 2,0 4,2 3,4 0,5 -1,10 -2,14 -1,5 -1,8 -2,11 0,1 1,1 1,1 1,1 2,1 2,2 1,0 2,1 3,1 0,0 1,0 1,1 1,-1 1,-1 2,-1 1,0 1,-1 2,-1 1,-1 2,-1 3,-2 0,0 0,0 0,-1 0,-3 -1,-6 -1,-11 -1,-4 -2,-9 -3,-14 0,-2 1,-4 3,-4 2,-1 4,1 4,3 1,4 2,9 3,14 1,4 1,9 2,13l0 0c0,2 0,3 -1,4 -1,1 -2,1 -3,2 -1,1 -2,1 -3,2 -1,0 -2,1 -3,2 -1,0 -2,1 -3,1l0 0c-1,0 -2,0 -3,0 -1,0 -2,-1 -3,-1 -1,-1 -2,-2 -3,-2 -1,-1 -2,-1 -3,-2 -1,-1 -2,-1 -3,-2 -1,-1 -2,-2 -1,-4 0,-4 1,-9 2,-13 1,-5 1,-10 2,-14zm65 -47c2,1 3,3 2,5 0,2 -2,3 -4,2 -9,-3 -16,-3 -22,0 -6,2 -12,7 -17,14 -1,2 -3,2 -5,1 -1,-1 -2,-4 -1,-5 6,-8 13,-14 20,-17 8,-3 17,-3 27,0zm-107 7c-2,1 -4,0 -5,-2 -1,-2 0,-4 2,-5 10,-3 19,-3 27,0 8,3 14,9 20,17 1,1 1,4 -1,5 -2,1 -4,1 -5,-1 -5,-7 -10,-12 -17,-14 -6,-3 -13,-3 -21,0z"/>
   <path fill="#9BFE94" fill-rule="nonzero" d="M92 227c-1,0 -2,0 -2,0 -3,0 -6,-1 -8,-3 -2,-2 -3,-5 -3,-8 0,-2 1,-4 3,-6 4,4 8,8 12,12l1 1 -3 4zm-31 -16c-2,2 -5,3 -8,3 -3,0 -5,-1 -7,-3 -3,-2 -4,-5 -3,-8 0,-3 1,-5 3,-7 2,-2 5,-3 8,-3 2,0 5,1 7,3 2,2 3,5 3,8 0,2 -1,5 -3,7zm-22 -72l0 0 0 0c-2,-2 -3,-5 -3,-8 0,-2 1,-5 3,-7l0 0 0 0 0 0c2,-3 5,-4 8,-4 0,0 0,0 0,0 1,1 1,3 1,4 1,6 2,11 3,17 -1,1 -3,1 -4,1 -3,0 -5,-1 -8,-3l0 0 0 0zm-3 40c-3,0 -6,-1 -8,-3 -2,-2 -3,-4 -3,-7 0,-3 1,-6 3,-8 2,-2 5,-3 8,-3 3,0 5,1 7,3 2,2 4,4 4,7l0 0 0 0 0 0c0,3 -2,6 -4,8 -1,2 -4,3 -7,3l0 0 0 0 0 0zm-6 -30c-1,-1 -1,-2 -1,-3l0 0c0,-1 0,-2 1,-3 0,0 1,-1 2,-1 1,0 2,1 3,1l0 0 0 0 0 0c1,1 1,2 1,3l0 0c0,1 0,2 -1,3l0 0 0 0 0 0 0 0c0,1 -1,1 -2,1l0 0c-1,0 -2,0 -3,-1l0 0 0 0 0 0zm6 46c-1,0 -2,-1 -2,-1 -1,-1 -1,-2 -2,-3 0,-1 1,-2 2,-3 0,-1 1,-1 2,-1l0 0 0 0 0 0c1,0 2,0 3,1 1,1 1,2 1,3l0 0 0 0 0 0 0 0c0,1 0,2 -1,2 0,1 -1,2 -2,2l-1 0 0 0 0 0zm36 27c-1,0 -2,1 -3,1 -1,0 -2,-1 -3,-1 -1,-1 -1,-2 -1,-3l0 0c0,-1 0,-2 1,-3l0 0 0 0 0 0c1,-1 2,-1 3,-1 1,0 2,0 3,1l0 0 0 0 0 0c0,1 1,2 1,3 0,1 -1,2 -1,3z"/>
   <path fill="url(#id2)" fill-rule="nonzero" d="M169 191l0 -48c0,-2 2,-3 4,-3 1,0 1,0 2,0l41 25c2,1 3,3 2,5 -1,1 -1,1 -2,2l-41 24c-2,1 -4,1 -5,-1 -1,-1 -1,-2 -1,-4z"/>
   <polygon fill="#64DB8B" fill-rule="nonzero" points="176,150 176,187 207,168 "/>
   <path fill="url(#id3)" fill-rule="nonzero" d="M203 101l68 41c22,13 29,34 0,51l-148 88c-27,16 -49,-12 -37,-30l15 -22c15,-23 30,-45 45,-68l-1 0 13 -19 0 0c0,1 0,1 0,1l0 48c0,4 0,7 2,10 4,7 13,9 20,5l42 -25c2,-1 4,-3 5,-5 4,-7 2,-16 -5,-20l-24 -15 1 -3c1,-12 3,-24 4,-37z"/>
   <path fill="white" fill-rule="nonzero" d="M202 131l26 15 0 0 0 0c6,3 10,9 12,16 2,6 1,14 -3,20l0 0c-1,2 -2,4 -4,5 -1,2 -3,3 -5,4l0 0 -42 25c-6,4 -13,4 -20,3 -6,-2 -12,-6 -16,-12 -1,-3 -2,-5 -3,-8 0,-2 -1,-5 -1,-8l0 -10 -2 4c-11,17 -22,34 -33,50l-15 22 0 0c-1,1 -1,2 -1,2 -1,1 -1,2 -1,3 0,2 1,4 2,6 1,2 3,3 5,4 2,2 4,2 7,2 3,0 6,-1 9,-3l148 -88c3,-2 6,-4 9,-7 3,-3 5,-6 4,-9 0,-3 -1,-5 -3,-7 -3,-3 -7,-6 -10,-8l-61 -36 1 -7 63 38c4,2 8,5 12,9 2,3 4,7 4,10 1,6 -2,10 -5,14 -4,3 -8,6 -11,8l-148 88c-3,2 -7,4 -12,4 -3,0 -7,0 -11,-2 -2,-2 -5,-4 -6,-7 -2,-3 -3,-6 -3,-9 0,-1 0,-3 1,-4 0,-2 1,-3 1,-4l0 0 16 -22c11,-17 22,-33 33,-50l8 -13 6 -8 0 10 0 20c0,3 0,5 0,7 1,2 1,4 2,6 3,4 8,8 13,9 5,1 10,0 15,-2l42 -25 0 0c1,-1 3,-2 4,-3 1,-1 2,-3 3,-4l0 0c3,-5 3,-11 2,-16 -1,-5 -4,-9 -9,-12l0 0 0 0 -23 -14 0 -6z"/>
   <path fill="#64DB8B" fill-rule="nonzero" d="M169 103c-4,-1 -8,-1 -12,1 -3,1 -6,4 -7,7 0,0 0,0 1,0 4,1 8,1 11,0 3,-1 5,-4 7,-8l0 0z"/>
   <path fill="#64DB8B" fill-rule="nonzero" d="M91 104c-3,-2 -7,-2 -11,-1l0 0c1,4 3,7 6,8 3,1 7,1 12,0 0,0 0,0 1,0 -2,-3 -5,-6 -8,-7z"/>
   <path fill="#64DB8B" fill-rule="nonzero" d="M87 215c0,1 0,1 0,1 0,1 0,2 1,3 0,1 1,1 2,1 1,0 1,0 2,0 -2,-2 -3,-3 -5,-5zm-34 -8c1,0 2,0 3,-1 1,-1 1,-2 1,-3 0,0 0,-1 -1,-2 -1,-1 -2,-1 -3,-1 0,0 -1,0 -2,1 -1,1 -1,1 -1,2 0,1 0,2 1,3 1,1 1,1 2,1zm-20 -36c1,1 2,1 3,1l0 0 0 0 0 0c1,0 2,0 2,-1 1,-1 1,-2 1,-2l0 -1 0 0 0 0c0,0 0,-1 -1,-2 0,-1 -1,-1 -2,-1 -1,0 -2,0 -3,1 0,1 -1,2 -1,3 0,1 1,1 1,2zm12 -37l0 0 0 0 0 0c0,0 1,1 2,1 1,0 2,-1 2,-2l1 0 0 0 0 0 0 0c-1,-1 -1,-3 -1,-5 -1,0 -2,0 -2,0 -1,0 -2,0 -3,1l0 0 0 0 0 0c0,0 -1,1 -1,2 0,1 1,2 1,3l1 0z"/>
  </g>
 </g>
</svg>
